<?xml version="1.0" encoding="UTF-8" standalone="no"?>
<!DOCTYPE svg PUBLIC "-//W3C//DTD SVG 1.1//EN"
 "http://www.w3.org/Graphics/SVG/1.1/DTD/svg11.dtd">
<!-- Generated by graphviz version 2.43.0 (0)
 -->
<!-- Title: storage_topology Pages: 1 -->
<svg width="1045pt" height="1059pt"
 viewBox="0.00 0.00 1045.40 1059.40" xmlns="http://www.w3.org/2000/svg" xmlns:xlink="http://www.w3.org/1999/xlink">
<g id="graph0" class="graph" transform="scale(1 1) rotate(0) translate(43.2 1016.2)">
<title>storage_topology</title>
<polygon fill="#0d0d0d" stroke="transparent" points="-43.2,43.2 -43.2,-1016.2 1002.2,-1016.2 1002.2,43.2 -43.2,43.2"/>
<text text-anchor="middle" x="479.5" y="-953" font-family="Courier New" font-size="20.00" fill="#cccccc">worlock — Storage Topology &amp; Backup Flows</text>
<g id="clust1" class="cluster">
<title>cluster_physical</title>
<path fill="#0a0a1a" stroke="#00f5ff" d="M20,-385C20,-385 489,-385 489,-385 495,-385 501,-391 501,-397 501,-397 501,-923 501,-923 501,-929 495,-935 489,-935 489,-935 20,-935 20,-935 14,-935 8,-929 8,-923 8,-923 8,-397 8,-397 8,-391 14,-385 20,-385"/>
<text text-anchor="middle" x="254.5" y="-920.6" font-family="Courier New" font-size="13.00" fill="#00f5ff">Physical Drives</text>
</g>
<g id="clust2" class="cluster">
<title>cluster_sources</title>
<path fill="#0a0a0a" stroke="#ffff00" d="M325,-13C325,-13 490,-13 490,-13 496,-13 502,-19 502,-25 502,-25 502,-239 502,-239 502,-245 496,-251 490,-251 490,-251 325,-251 325,-251 319,-251 313,-245 313,-239 313,-239 313,-25 313,-25 313,-19 319,-13 325,-13"/>
<text text-anchor="middle" x="407.5" y="-236.6" font-family="Courier New" font-size="13.00" fill="#ffff00">Backup Sources &#160;(~22GB)</text>
</g>
<g id="clust3" class="cluster">
<title>cluster_dests</title>
<path fill="#0a001a" stroke="#ff00ff" d="M662,-8C662,-8 947,-8 947,-8 953,-8 959,-14 959,-20 959,-20 959,-310 959,-310 959,-316 953,-322 947,-322 947,-322 662,-322 662,-322 656,-322 650,-316 650,-310 650,-310 650,-20 650,-20 650,-14 656,-8 662,-8"/>
<text text-anchor="middle" x="804.5" y="-307.6" font-family="Courier New" font-size="13.00" fill="#ff00ff">Backup Destinations &#160;(/mnt/hitachi_2tb)</text>
</g>
<!-- nvme0 -->
<g id="node1" class="node">
<title>nvme0</title>
<path fill="#0f3460" stroke="#00f5ff" d="M118.5,-429C118.5,-429 58.5,-429 58.5,-429 52.5,-429 46.5,-423 46.5,-417 46.5,-417 46.5,-405 46.5,-405 46.5,-399 52.5,-393 58.5,-393 58.5,-393 118.5,-393 118.5,-393 124.5,-393 130.5,-399 130.5,-405 130.5,-405 130.5,-417 130.5,-417 130.5,-423 124.5,-429 118.5,-429"/>
<text text-anchor="middle" x="88.5" y="-414.2" font-family="Courier New" font-size="11.00" fill="#00f5ff">NVMe 0</text>
<text text-anchor="middle" x="88.5" y="-402.2" font-family="Courier New" font-size="11.00" fill="#00f5ff">(system /)</text>
</g>
<!-- aiml -->
<g id="node9" class="node">
<title>aiml</title>
<path fill="#0a1a0a" stroke="#39ff14" d="M474,-221C474,-221 340,-221 340,-221 334,-221 328,-215 328,-209 328,-209 328,-177 328,-177 328,-171 334,-165 340,-165 340,-165 474,-165 474,-165 480,-165 486,-171 486,-177 486,-177 486,-209 486,-209 486,-215 480,-221 474,-221"/>
<text text-anchor="middle" x="407" y="-208.2" font-family="Courier New" font-size="11.00" fill="#39ff14">AI&#45;ML_Papers</text>
<text text-anchor="middle" x="407" y="-196.2" font-family="Courier New" font-size="11.00" fill="#39ff14">16GB · 5,937 files</text>
<text text-anchor="middle" x="407" y="-184.2" font-family="Courier New" font-size="11.00" fill="#39ff14">Agents, transformers,</text>
<text text-anchor="middle" x="407" y="-172.2" font-family="Courier New" font-size="11.00" fill="#39ff14">BCI, reasoning …</text>
</g>
<!-- nvme0&#45;&gt;aiml -->
<g id="edge11" class="edge">
<title>nvme0&#45;&gt;aiml</title>
<path fill="none" stroke="#444444" stroke-width="2" stroke-dasharray="1,5" d="M96.2,-392.85C110.31,-357.32 146.56,-278.61 204,-239 240.12,-214.09 287.69,-202.48 327.6,-197.14"/>
<text text-anchor="middle" x="237.5" y="-242" font-family="Courier New" font-size="10.00">~/Documents</text>
</g>
<!-- cs -->
<g id="node10" class="node">
<title>cs</title>
<path fill="#0a1a0a" stroke="#39ff14" d="M467.5,-129C467.5,-129 346.5,-129 346.5,-129 340.5,-129 334.5,-123 334.5,-117 334.5,-117 334.5,-105 334.5,-105 334.5,-99 340.5,-93 346.5,-93 346.5,-93 467.5,-93 467.5,-93 473.5,-93 479.5,-99 479.5,-105 479.5,-105 479.5,-117 479.5,-117 479.5,-123 473.5,-129 467.5,-129"/>
<text text-anchor="middle" x="407" y="-114.2" font-family="Courier New" font-size="11.00" fill="#39ff14">computer science</text>
<text text-anchor="middle" x="407" y="-102.2" font-family="Courier New" font-size="11.00" fill="#39ff14">2.3GB · 1,117 files</text>
</g>
<!-- nvme0&#45;&gt;cs -->
<g id="edge12" class="edge">
<title>nvme0&#45;&gt;cs</title>
<path fill="none" stroke="#444444" stroke-width="2" stroke-dasharray="1,5" d="M95.09,-392.8C108.12,-353.03 144.06,-257.32 204,-200 240.28,-165.3 292.33,-142.81 334.5,-129.12"/>
</g>
<!-- computers -->
<g id="node11" class="node">
<title>computers</title>
<path fill="#0a1a0a" stroke="#39ff14" d="M467.5,-57C467.5,-57 346.5,-57 346.5,-57 340.5,-57 334.5,-51 334.5,-45 334.5,-45 334.5,-33 334.5,-33 334.5,-27 340.5,-21 346.5,-21 346.5,-21 467.5,-21 467.5,-21 473.5,-21 479.5,-27 479.5,-33 479.5,-33 479.5,-45 479.5,-45 479.5,-51 473.5,-57 467.5,-57"/>
<text text-anchor="middle" x="407" y="-42.2" font-family="Courier New" font-size="11.00" fill="#39ff14">computers</text>
<text text-anchor="middle" x="407" y="-30.2" font-family="Courier New" font-size="11.00" fill="#39ff14">3.7GB · 1,540 files</text>
</g>
<!-- nvme0&#45;&gt;computers -->
<g id="edge13" class="edge">
<title>nvme0&#45;&gt;computers</title>
<path fill="none" stroke="#444444" stroke-width="2" stroke-dasharray="1,5" d="M93.61,-392.84C104.67,-347.28 138.73,-226.18 204,-148 241.41,-103.19 302.16,-73.97 347.28,-57.17"/>
</g>
<!-- nvme1 -->
<g id="node2" class="node">
<title>nvme1</title>
<path fill="#0f3460" stroke="#00f5ff" d="M149,-673C149,-673 28,-673 28,-673 22,-673 16,-667 16,-661 16,-661 16,-649 16,-649 16,-643 22,-637 28,-637 28,-637 149,-637 149,-637 155,-637 161,-643 161,-649 161,-649 161,-661 161,-661 161,-667 155,-673 149,-673"/>
<text text-anchor="middle" x="88.5" y="-658.2" font-family="Courier New" font-size="11.00" fill="#00f5ff">NVMe 1</text>
<text text-anchor="middle" x="88.5" y="-646.2" font-family="Courier New" font-size="11.00" fill="#00f5ff">(camera recordings)</text>
</g>
<!-- camera -->
<g id="node17" class="node">
<title>camera</title>
<path fill="#0f3460" stroke="#00f5ff" d="M464,-377C464,-377 350,-377 350,-377 344,-377 338,-371 338,-365 338,-365 338,-345 338,-345 338,-339 344,-333 350,-333 350,-333 464,-333 464,-333 470,-333 476,-339 476,-345 476,-345 476,-365 476,-365 476,-371 470,-377 464,-377"/>
<text text-anchor="middle" x="407" y="-364.2" font-family="Courier New" font-size="11.00" fill="#aaaaaa">camera_recordings/</text>
<text text-anchor="middle" x="407" y="-352.2" font-family="Courier New" font-size="11.00" fill="#aaaaaa">Hikvision MKV</text>
<text text-anchor="middle" x="407" y="-340.2" font-family="Courier New" font-size="11.00" fill="#aaaaaa">/mnt/nvme0</text>
</g>
<!-- nvme1&#45;&gt;camera -->
<g id="edge3" class="edge">
<title>nvme1&#45;&gt;camera</title>
<path fill="none" stroke="#00f5ff" stroke-width="2" stroke-dasharray="1,5" d="M134.58,-636.94C143.92,-631.97 153.26,-625.99 161,-619 254.15,-534.89 212.14,-455.7 313,-381 317.75,-377.48 322.95,-374.44 328.39,-371.81"/>
<polygon fill="#00f5ff" stroke="#00f5ff" stroke-width="2" points="329.95,-374.95 337.74,-367.77 327.17,-368.53 329.95,-374.95"/>
</g>
<!-- sda -->
<g id="node3" class="node">
<title>sda</title>
<path fill="#1a1a2e" stroke="#39ff14" d="M135.5,-905C135.5,-905 41.5,-905 41.5,-905 35.5,-905 29.5,-899 29.5,-893 29.5,-893 29.5,-873 29.5,-873 29.5,-867 35.5,-861 41.5,-861 41.5,-861 135.5,-861 135.5,-861 141.5,-861 147.5,-867 147.5,-873 147.5,-873 147.5,-893 147.5,-893 147.5,-899 141.5,-905 135.5,-905"/>
<text text-anchor="middle" x="88.5" y="-892.2" font-family="Courier New" font-size="11.00" fill="#39ff14">sda — WD 4TB</text>
<text text-anchor="middle" x="88.5" y="-880.2" font-family="Courier New" font-size="11.00" fill="#39ff14">ext4 &#160;&#45;i 4096</text>
<text text-anchor="middle" x="88.5" y="-868.2" font-family="Courier New" font-size="11.00" fill="#39ff14">/mnt/pdf_backup</text>
</g>
<!-- pdf_dst -->
<g id="node16" class="node">
<title>pdf_dst</title>
<path fill="#0a1a0a" stroke="#39ff14" d="M871,-876C871,-876 737,-876 737,-876 731,-876 725,-870 725,-864 725,-864 725,-844 725,-844 725,-838 731,-832 737,-832 737,-832 871,-832 871,-832 877,-832 883,-838 883,-844 883,-844 883,-864 883,-864 883,-870 877,-876 871,-876"/>
<text text-anchor="middle" x="804" y="-863.2" font-family="Courier New" font-size="11.00" fill="#39ff14">pdf_backup</text>
<text text-anchor="middle" x="804" y="-851.2" font-family="Courier New" font-size="11.00" fill="#39ff14">(sda /mnt/pdf_backup)</text>
<text text-anchor="middle" x="804" y="-839.2" font-family="Courier New" font-size="11.00" fill="#39ff14">rsync mirror of RAID0</text>
</g>
<!-- sda&#45;&gt;pdf_dst -->
<g id="edge10" class="edge">
<title>sda&#45;&gt;pdf_dst</title>
<path fill="none" stroke="#444444" stroke-width="2" stroke-dasharray="1,5" d="M147.59,-880.64C275.27,-875.45 580.45,-863.05 724.8,-857.18"/>
</g>
<!-- sdb -->
<g id="node4" class="node">
<title>sdb</title>
<path fill="#1a1a2e" stroke="#ff00ff" d="M142,-509C142,-509 35,-509 35,-509 29,-509 23,-503 23,-497 23,-497 23,-477 23,-477 23,-471 29,-465 35,-465 35,-465 142,-465 142,-465 148,-465 154,-471 154,-477 154,-477 154,-497 154,-497 154,-503 148,-509 142,-509"/>
<text text-anchor="middle" x="88.5" y="-496.2" font-family="Courier New" font-size="11.00" fill="#ff00ff">sdb — Hitachi 2TB</text>
<text text-anchor="middle" x="88.5" y="-484.2" font-family="Courier New" font-size="11.00" fill="#ff00ff">/mnt/hitachi_2tb</text>
<text text-anchor="middle" x="88.5" y="-472.2" font-family="Courier New" font-size="11.00" fill="#ff00ff">~1.0T free</text>
</g>
<!-- aiml_dst -->
<g id="node12" class="node">
<title>aiml_dst</title>
<path fill="#1a0a2e" stroke="#ff00ff" d="M868,-292C868,-292 740,-292 740,-292 734,-292 728,-286 728,-280 728,-280 728,-268 728,-268 728,-262 734,-256 740,-256 740,-256 868,-256 868,-256 874,-256 880,-262 880,-268 880,-268 880,-280 880,-280 880,-286 874,-292 868,-292"/>
<text text-anchor="middle" x="804" y="-277.2" font-family="Courier New" font-size="11.00" fill="#ff00ff">AI&#45;ML_Papers_backup/</text>
<text text-anchor="middle" x="804" y="-265.2" font-family="Courier New" font-size="11.00" fill="#ff00ff">(rsync mirror)</text>
</g>
<!-- sdb&#45;&gt;aiml_dst -->
<g id="edge9" class="edge">
<title>sdb&#45;&gt;aiml_dst</title>
<path fill="none" stroke="#444444" stroke-width="2" stroke-dasharray="1,5" d="M132.34,-464.92C142,-459.43 152.04,-453.3 161,-447 234.2,-395.55 230.56,-349.78 313,-315 450.44,-257.01 628.57,-259.08 727.79,-266.24"/>
</g>
<!-- sdc -->
<g id="node5" class="node">
<title>sdc</title>
<path fill="#1a1a2e" stroke="#00f5ff" d="M122,-601C122,-601 55,-601 55,-601 49,-601 43,-595 43,-589 43,-589 43,-557 43,-557 43,-551 49,-545 55,-545 55,-545 122,-545 122,-545 128,-545 134,-551 134,-557 134,-557 134,-589 134,-589 134,-595 128,-601 122,-601"/>
<text text-anchor="middle" x="88.5" y="-588.2" font-family="Courier New" font-size="11.00" fill="#aaaaaa">sdc1 — 5.5T</text>
<text text-anchor="middle" x="88.5" y="-576.2" font-family="Courier New" font-size="11.00" fill="#aaaaaa">/mnt/sdc1</text>
<text text-anchor="middle" x="88.5" y="-564.2" font-family="Courier New" font-size="11.00" fill="#aaaaaa">1.46M PDFs</text>
<text text-anchor="middle" x="88.5" y="-552.2" font-family="Courier New" font-size="11.00" fill="#aaaaaa">+ Telegram</text>
</g>
<!-- sdg -->
<g id="node6" class="node">
<title>sdg</title>
<path fill="#2a1a0a" stroke="#ff6600" d="M149,-825C149,-825 28,-825 28,-825 22,-825 16,-819 16,-813 16,-813 16,-793 16,-793 16,-787 22,-781 28,-781 28,-781 149,-781 149,-781 155,-781 161,-787 161,-793 161,-793 161,-813 161,-813 161,-819 155,-825 149,-825"/>
<text text-anchor="middle" x="88.5" y="-812.2" font-family="Courier New" font-size="11.00" fill="#ff6600">sdg — IronWolf 12TB</text>
<text text-anchor="middle" x="88.5" y="-800.2" font-family="Courier New" font-size="11.00" fill="#ff6600">RAID0 member</text>
<text text-anchor="middle" x="88.5" y="-788.2" font-family="Courier New" font-size="11.00" fill="#ff6600">⚠ alert at 43°C</text>
</g>
<!-- md0 -->
<g id="node8" class="node">
<title>md0</title>
<path fill="#1a0a0a" stroke="#ff6600" d="M493,-822.96C493,-826.02 454.45,-828.5 407,-828.5 359.55,-828.5 321,-826.02 321,-822.96 321,-822.96 321,-773.04 321,-773.04 321,-769.98 359.55,-767.5 407,-767.5 454.45,-767.5 493,-769.98 493,-773.04 493,-773.04 493,-822.96 493,-822.96"/>
<path fill="none" stroke="#ff6600" d="M493,-822.96C493,-819.9 454.45,-817.41 407,-817.41 359.55,-817.41 321,-819.9 321,-822.96"/>
<text text-anchor="middle" x="407" y="-807.2" font-family="Courier New" font-size="11.00" fill="#ff6600">md0 — RAID0</text>
<text text-anchor="middle" x="407" y="-795.2" font-family="Courier New" font-size="11.00" fill="#ff6600">/mnt/raid0</text>
<text text-anchor="middle" x="407" y="-783.2" font-family="Courier New" font-size="11.00" fill="#ff6600">4.7T PDFs (~2.5M files)</text>
</g>
<!-- sdg&#45;&gt;md0 -->
<g id="edge1" class="edge">
<title>sdg&#45;&gt;md0</title>
<path fill="none" stroke="#ff6600" stroke-width="2" stroke-dasharray="5,2" d="M161.32,-801.87C205.59,-801.17 262.88,-800.26 310.89,-799.5"/>
<polygon fill="#ff6600" stroke="#ff6600" stroke-width="2" points="311.05,-803 320.99,-799.34 310.93,-796 311.05,-803"/>
<text text-anchor="middle" x="237.5" y="-804" font-family="Courier New" font-size="10.00">RAID0</text>
</g>
<!-- sdh -->
<g id="node7" class="node">
<title>sdh</title>
<path fill="#1a1a2e" stroke="#ff6600" d="M149,-745C149,-745 28,-745 28,-745 22,-745 16,-739 16,-733 16,-733 16,-721 16,-721 16,-715 22,-709 28,-709 28,-709 149,-709 149,-709 155,-709 161,-715 161,-721 161,-721 161,-733 161,-733 161,-739 155,-745 149,-745"/>
<text text-anchor="middle" x="88.5" y="-730.2" font-family="Courier New" font-size="11.00" fill="#ff6600">sdh — IronWolf 12TB</text>
<text text-anchor="middle" x="88.5" y="-718.2" font-family="Courier New" font-size="11.00" fill="#ff6600">RAID0 member</text>
</g>
<!-- sdh&#45;&gt;md0 -->
<g id="edge2" class="edge">
<title>sdh&#45;&gt;md0</title>
<path fill="none" stroke="#ff6600" stroke-width="2" stroke-dasharray="5,2" d="M161.32,-743.11C205.68,-753.06 263.12,-765.95 311.19,-776.73"/>
<polygon fill="#ff6600" stroke="#ff6600" stroke-width="2" points="310.47,-780.16 320.99,-778.93 312,-773.33 310.47,-780.16"/>
</g>
<!-- md0&#45;&gt;pdf_dst -->
<g id="edge7" class="edge">
<title>md0&#45;&gt;pdf_dst</title>
<path fill="none" stroke="#ff6600" stroke-width="2" d="M493.23,-806.85C530.65,-811 575.07,-816.29 615,-822 647.68,-826.67 683.42,-832.56 714.88,-838.01"/>
<polygon fill="#ff6600" stroke="#ff6600" stroke-width="2" points="714.49,-841.49 724.94,-839.76 715.69,-834.59 714.49,-841.49"/>
<text text-anchor="middle" x="575.5" y="-847" font-family="Courier New" font-size="10.00">rsync</text>
<text text-anchor="middle" x="575.5" y="-836" font-family="Courier New" font-size="10.00">&#45;&#45;pdf</text>
<text text-anchor="middle" x="575.5" y="-825" font-family="Courier New" font-size="10.00">(sudo)</text>
</g>
<!-- aiml&#45;&gt;aiml_dst -->
<g id="edge4" class="edge">
<title>aiml&#45;&gt;aiml_dst</title>
<path fill="none" stroke="#39ff14" stroke-width="2" d="M486.06,-204.11C525,-210.18 572.7,-218.41 615,-228 630.78,-231.58 634.34,-233.92 650,-238 671.87,-243.69 695.6,-249.47 717.7,-254.68"/>
<polygon fill="#39ff14" stroke="#39ff14" stroke-width="2" points="717.19,-258.16 727.73,-257.03 718.79,-251.34 717.19,-258.16"/>
<text text-anchor="middle" x="575.5" y="-242" font-family="Courier New" font-size="10.00">rsync</text>
<text text-anchor="middle" x="575.5" y="-231" font-family="Courier New" font-size="10.00">&#45;&#45;aiml</text>
</g>
<!-- restic_repo -->
<g id="node15" class="node">
<title>restic_repo</title>
<path fill="#1a0a2e" stroke="#bf00ff" d="M900,-214.96C900,-218.02 856.97,-220.5 804,-220.5 751.03,-220.5 708,-218.02 708,-214.96 708,-214.96 708,-165.04 708,-165.04 708,-161.98 751.03,-159.5 804,-159.5 856.97,-159.5 900,-161.98 900,-165.04 900,-165.04 900,-214.96 900,-214.96"/>
<path fill="none" stroke="#bf00ff" d="M900,-214.96C900,-211.9 856.97,-209.41 804,-209.41 751.03,-209.41 708,-211.9 708,-214.96"/>
<text text-anchor="middle" x="804" y="-199.2" font-family="Courier New" font-size="11.00" fill="#bf00ff">restic_repos/ai&#45;ml&#45;papers/</text>
<text text-anchor="middle" x="804" y="-187.2" font-family="Courier New" font-size="11.00" fill="#bf00ff">zstd max · encrypted</text>
<text text-anchor="middle" x="804" y="-175.2" font-family="Courier New" font-size="11.00" fill="#bf00ff">versioned snapshots</text>
</g>
<!-- aiml&#45;&gt;restic_repo -->
<g id="edge8" class="edge">
<title>aiml&#45;&gt;restic_repo</title>
<path fill="none" stroke="#bf00ff" stroke-width="2" stroke-dasharray="5,2" d="M486.08,-173.13C502.47,-169.75 519.72,-166.76 536,-165 589.26,-159.24 648.59,-163.71 697.77,-170.38"/>
<polygon fill="#bf00ff" stroke="#bf00ff" stroke-width="2" points="697.39,-173.86 707.78,-171.78 698.37,-166.93 697.39,-173.86"/>
<text text-anchor="middle" x="575.5" y="-179" font-family="Courier New" font-size="10.00">restic</text>
<text text-anchor="middle" x="575.5" y="-168" font-family="Courier New" font-size="10.00">&#45;&#45;aiml&#45;restic</text>
</g>
<!-- cs_dst -->
<g id="node13" class="node">
<title>cs_dst</title>
<path fill="#1a0a2e" stroke="#ff00ff" d="M881.5,-124C881.5,-124 726.5,-124 726.5,-124 720.5,-124 714.5,-118 714.5,-112 714.5,-112 714.5,-100 714.5,-100 714.5,-94 720.5,-88 726.5,-88 726.5,-88 881.5,-88 881.5,-88 887.5,-88 893.5,-94 893.5,-100 893.5,-100 893.5,-112 893.5,-112 893.5,-118 887.5,-124 881.5,-124"/>
<text text-anchor="middle" x="804" y="-109.2" font-family="Courier New" font-size="11.00" fill="#ff00ff">computer_science_backup/</text>
<text text-anchor="middle" x="804" y="-97.2" font-family="Courier New" font-size="11.00" fill="#ff00ff">(rsync mirror)</text>
</g>
<!-- cs&#45;&gt;cs_dst -->
<g id="edge5" class="edge">
<title>cs&#45;&gt;cs_dst</title>
<path fill="none" stroke="#39ff14" stroke-width="2" d="M479.53,-110.09C542.36,-109.3 634.38,-108.13 704.22,-107.25"/>
<polygon fill="#39ff14" stroke="#39ff14" stroke-width="2" points="704.4,-110.75 714.36,-107.12 704.32,-103.75 704.4,-110.75"/>
<text text-anchor="middle" x="575.5" y="-124" font-family="Courier New" font-size="10.00">rsync</text>
<text text-anchor="middle" x="575.5" y="-113" font-family="Courier New" font-size="10.00">&#45;&#45;cs</text>
</g>
<!-- computers_dst -->
<g id="node14" class="node">
<title>computers_dst</title>
<path fill="#1a0a2e" stroke="#ff00ff" d="M857.5,-52C857.5,-52 750.5,-52 750.5,-52 744.5,-52 738.5,-46 738.5,-40 738.5,-40 738.5,-28 738.5,-28 738.5,-22 744.5,-16 750.5,-16 750.5,-16 857.5,-16 857.5,-16 863.5,-16 869.5,-22 869.5,-28 869.5,-28 869.5,-40 869.5,-40 869.5,-46 863.5,-52 857.5,-52"/>
<text text-anchor="middle" x="804" y="-37.2" font-family="Courier New" font-size="11.00" fill="#ff00ff">computers_backup/</text>
<text text-anchor="middle" x="804" y="-25.2" font-family="Courier New" font-size="11.00" fill="#ff00ff">(rsync mirror)</text>
</g>
<!-- computers&#45;&gt;computers_dst -->
<g id="edge6" class="edge">
<title>computers&#45;&gt;computers_dst</title>
<path fill="none" stroke="#39ff14" stroke-width="2" d="M479.53,-38.09C549.78,-37.21 656.51,-35.85 727.94,-34.95"/>
<polygon fill="#39ff14" stroke="#39ff14" stroke-width="2" points="728.26,-38.45 738.22,-34.82 728.18,-31.45 728.26,-38.45"/>
<text text-anchor="middle" x="575.5" y="-52" font-family="Courier New" font-size="10.00">rsync</text>
<text text-anchor="middle" x="575.5" y="-41" font-family="Courier New" font-size="10.00">&#45;&#45;computers</text>
</g>
</g>
</svg>
