<?xml version="1.0" encoding="UTF-8" standalone="no"?>
<!DOCTYPE svg PUBLIC "-//W3C//DTD SVG 1.1//EN"
 "http://www.w3.org/Graphics/SVG/1.1/DTD/svg11.dtd">
<!-- Generated by graphviz version 2.43.0 (0)
 -->
<!-- Title: backup_flows Pages: 1 -->
<svg width="1738pt" height="725pt"
 viewBox="0.00 0.00 1737.89 724.70" xmlns="http://www.w3.org/2000/svg" xmlns:xlink="http://www.w3.org/1999/xlink">
<g id="graph0" class="graph" transform="scale(1 1) rotate(0) translate(57.6 667.1)">
<title>backup_flows</title>
<polygon fill="#0d0d0d" stroke="transparent" points="-57.6,57.6 -57.6,-667.1 1680.29,-667.1 1680.29,57.6 -57.6,57.6"/>
<text text-anchor="middle" x="811.34" y="-589.5" font-family="Courier New" font-size="20.00" fill="#cccccc">worlock — Backup Flow Matrix</text>
<!-- src_aiml -->
<g id="node1" class="node">
<title>src_aiml</title>
<path fill="#0a1a0a" stroke="#39ff14" d="M200,-303C200,-303 27,-303 27,-303 21,-303 15,-297 15,-291 15,-291 15,-268 15,-268 15,-262 21,-256 27,-256 27,-256 200,-256 200,-256 206,-256 212,-262 212,-268 212,-268 212,-291 212,-291 212,-297 206,-303 200,-303"/>
<text text-anchor="middle" x="113.5" y="-289.4" font-family="Courier New" font-size="12.00" fill="#39ff14">AI&#45;ML_Papers</text>
<text text-anchor="middle" x="113.5" y="-276.4" font-family="Courier New" font-size="12.00" fill="#39ff14">~/Documents/AI&#45;ML_Papers</text>
<text text-anchor="middle" x="113.5" y="-263.4" font-family="Courier New" font-size="12.00" fill="#39ff14">16GB · 5,937 PDFs</text>
</g>
<!-- tool_rsync -->
<g id="node5" class="node">
<title>tool_rsync</title>
<path fill="#001a2e" stroke="#00bfff" d="M569.56,-207.59C569.56,-207.59 461.44,-146.41 461.44,-146.41 456.22,-143.46 456.22,-137.54 461.44,-134.59 461.44,-134.59 569.56,-73.41 569.56,-73.41 574.78,-70.46 585.22,-70.46 590.44,-73.41 590.44,-73.41 698.56,-134.59 698.56,-134.59 703.78,-137.54 703.78,-143.46 698.56,-146.41 698.56,-146.41 590.44,-207.59 590.44,-207.59 585.22,-210.54 574.78,-210.54 569.56,-207.59"/>
<text text-anchor="middle" x="580" y="-163.4" font-family="Courier New" font-size="12.00" fill="#00bfff">rsync</text>
<text text-anchor="middle" x="580" y="-150.4" font-family="Courier New" font-size="12.00" fill="#00bfff">&#45;&#45;archive</text>
<text text-anchor="middle" x="580" y="-137.4" font-family="Courier New" font-size="12.00" fill="#00bfff">&#45;&#45;partial</text>
<text text-anchor="middle" x="580" y="-124.4" font-family="Courier New" font-size="12.00" fill="#00bfff">&#45;&#45;append&#45;verify</text>
<text text-anchor="middle" x="580" y="-111.4" font-family="Courier New" font-size="12.00" fill="#00bfff">(resume&#45;safe)</text>
</g>
<!-- src_aiml&#45;&gt;tool_rsync -->
<g id="edge1" class="edge">
<title>src_aiml&#45;&gt;tool_rsync</title>
<path fill="none" stroke="#39ff14" stroke-width="2.5" d="M193.03,-256C273.74,-231.85 399.4,-194.25 485.26,-168.55"/>
<polygon fill="#39ff14" stroke="#39ff14" stroke-width="2.5" points="486.43,-171.86 495,-165.64 484.42,-165.15 486.43,-171.86"/>
<text text-anchor="middle" x="327.5" y="-241.5" font-family="Courier New" font-size="10.00">&#45;&#45;aiml</text>
<text text-anchor="middle" x="327.5" y="-230.5" font-family="Courier New" font-size="10.00">&#45;&#45;all&#45;archives</text>
</g>
<!-- tool_restic -->
<g id="node6" class="node">
<title>tool_restic</title>
<path fill="#1a001a" stroke="#bf00ff" d="M569.3,-404.07C569.3,-404.07 446.7,-341.93 446.7,-341.93 441.35,-339.21 441.35,-333.79 446.7,-331.07 446.7,-331.07 569.3,-268.93 569.3,-268.93 574.65,-266.21 585.35,-266.21 590.7,-268.93 590.7,-268.93 713.3,-331.07 713.3,-331.07 718.65,-333.79 718.65,-339.21 713.3,-341.93 713.3,-341.93 590.7,-404.07 590.7,-404.07 585.35,-406.79 574.65,-406.79 569.3,-404.07"/>
<text text-anchor="middle" x="580" y="-359.4" font-family="Courier New" font-size="12.00" fill="#bf00ff">restic</text>
<text text-anchor="middle" x="580" y="-346.4" font-family="Courier New" font-size="12.00" fill="#bf00ff">&#45;&#45;compression max</text>
<text text-anchor="middle" x="580" y="-333.4" font-family="Courier New" font-size="12.00" fill="#bf00ff">(zstd)</text>
<text text-anchor="middle" x="580" y="-320.4" font-family="Courier New" font-size="12.00" fill="#bf00ff">AES&#45;256 encrypted</text>
<text text-anchor="middle" x="580" y="-307.4" font-family="Courier New" font-size="12.00" fill="#bf00ff">versioned</text>
</g>
<!-- src_aiml&#45;&gt;tool_restic -->
<g id="edge5" class="edge">
<title>src_aiml&#45;&gt;tool_restic</title>
<path fill="none" stroke="#bf00ff" stroke-width="2.5" stroke-dasharray="5,2" d="M212.16,-291.48C282.45,-300.11 377.85,-311.82 453.74,-321.13"/>
<polygon fill="#bf00ff" stroke="#bf00ff" stroke-width="2.5" points="453.49,-324.62 463.84,-322.37 454.34,-317.68 453.49,-324.62"/>
<text text-anchor="middle" x="327.5" y="-313.5" font-family="Courier New" font-size="10.00">&#45;&#45;aiml&#45;restic</text>
</g>
<!-- src_cs -->
<g id="node2" class="node">
<title>src_cs</title>
<path fill="#0a1a0a" stroke="#39ff14" d="M215,-170C215,-170 12,-170 12,-170 6,-170 0,-164 0,-158 0,-158 0,-135 0,-135 0,-129 6,-123 12,-123 12,-123 215,-123 215,-123 221,-123 227,-129 227,-135 227,-135 227,-158 227,-158 227,-164 221,-170 215,-170"/>
<text text-anchor="middle" x="113.5" y="-156.4" font-family="Courier New" font-size="12.00" fill="#39ff14">computer science</text>
<text text-anchor="middle" x="113.5" y="-143.4" font-family="Courier New" font-size="12.00" fill="#39ff14">~/Documents/computer science</text>
<text text-anchor="middle" x="113.5" y="-130.4" font-family="Courier New" font-size="12.00" fill="#39ff14">2.3GB · 1,117 files</text>
</g>
<!-- src_cs&#45;&gt;tool_rsync -->
<g id="edge2" class="edge">
<title>src_cs&#45;&gt;tool_rsync</title>
<path fill="none" stroke="#39ff14" stroke-width="2.5" d="M227.24,-145.04C292.5,-144.2 375.07,-143.13 443.81,-142.25"/>
<polygon fill="#39ff14" stroke="#39ff14" stroke-width="2.5" points="443.89,-145.75 453.85,-142.12 443.8,-138.75 443.89,-145.75"/>
<text text-anchor="middle" x="327.5" y="-158.5" font-family="Courier New" font-size="10.00">&#45;&#45;cs</text>
<text text-anchor="middle" x="327.5" y="-147.5" font-family="Courier New" font-size="10.00">&#45;&#45;all&#45;archives</text>
</g>
<!-- src_computers -->
<g id="node3" class="node">
<title>src_computers</title>
<path fill="#0a1a0a" stroke="#39ff14" d="M188.5,-73C188.5,-73 38.5,-73 38.5,-73 32.5,-73 26.5,-67 26.5,-61 26.5,-61 26.5,-38 26.5,-38 26.5,-32 32.5,-26 38.5,-26 38.5,-26 188.5,-26 188.5,-26 194.5,-26 200.5,-32 200.5,-38 200.5,-38 200.5,-61 200.5,-61 200.5,-67 194.5,-73 188.5,-73"/>
<text text-anchor="middle" x="113.5" y="-59.4" font-family="Courier New" font-size="12.00" fill="#39ff14">computers</text>
<text text-anchor="middle" x="113.5" y="-46.4" font-family="Courier New" font-size="12.00" fill="#39ff14">~/Documents/computers</text>
<text text-anchor="middle" x="113.5" y="-33.4" font-family="Courier New" font-size="12.00" fill="#39ff14">3.7GB · 1,540 files</text>
</g>
<!-- src_computers&#45;&gt;tool_rsync -->
<g id="edge3" class="edge">
<title>src_computers&#45;&gt;tool_rsync</title>
<path fill="none" stroke="#39ff14" stroke-width="2.5" d="M200.51,-66.35C277.75,-81.48 391.37,-103.74 473.96,-119.92"/>
<polygon fill="#39ff14" stroke="#39ff14" stroke-width="2.5" points="473.39,-123.38 483.87,-121.86 474.73,-116.51 473.39,-123.38"/>
<text text-anchor="middle" x="327.5" y="-112.5" font-family="Courier New" font-size="10.00">&#45;&#45;computers</text>
<text text-anchor="middle" x="327.5" y="-101.5" font-family="Courier New" font-size="10.00">&#45;&#45;all&#45;archives</text>
</g>
<!-- src_raid0 -->
<g id="node4" class="node">
<title>src_raid0</title>
<path fill="#1a0a00" stroke="#ff6600" d="M181,-543C181,-543 46,-543 46,-543 40,-543 34,-537 34,-531 34,-531 34,-508 34,-508 34,-502 40,-496 46,-496 46,-496 181,-496 181,-496 187,-496 193,-502 193,-508 193,-508 193,-531 193,-531 193,-537 187,-543 181,-543"/>
<text text-anchor="middle" x="113.5" y="-529.4" font-family="Courier New" font-size="12.00" fill="#ff6600">PDF Archive</text>
<text text-anchor="middle" x="113.5" y="-516.4" font-family="Courier New" font-size="12.00" fill="#ff6600">/mnt/raid0 &#160;(RAID0)</text>
<text text-anchor="middle" x="113.5" y="-503.4" font-family="Courier New" font-size="12.00" fill="#ff6600">~4.7T · ~2.5M files</text>
</g>
<!-- tool_pdf -->
<g id="node7" class="node">
<title>tool_pdf</title>
<path fill="#1a0a00" stroke="#ff6600" d="M568.84,-575.09C568.84,-575.09 439.16,-523.91 439.16,-523.91 433.58,-521.7 433.58,-517.3 439.16,-515.09 439.16,-515.09 568.84,-463.91 568.84,-463.91 574.42,-461.7 585.58,-461.7 591.16,-463.91 591.16,-463.91 720.84,-515.09 720.84,-515.09 726.42,-517.3 726.42,-521.7 720.84,-523.91 720.84,-523.91 591.16,-575.09 591.16,-575.09 585.58,-577.3 574.42,-577.3 568.84,-575.09"/>
<text text-anchor="middle" x="580" y="-535.9" font-family="Courier New" font-size="12.00" fill="#ff6600">pdf&#45;backup.sh</text>
<text text-anchor="middle" x="580" y="-522.9" font-family="Courier New" font-size="12.00" fill="#ff6600">(rsync wrapper)</text>
<text text-anchor="middle" x="580" y="-509.9" font-family="Courier New" font-size="12.00" fill="#ff6600">PID guard · resume</text>
<text text-anchor="middle" x="580" y="-496.9" font-family="Courier New" font-size="12.00" fill="#ff6600">&#45;&#45;max&#45;size limit</text>
</g>
<!-- src_raid0&#45;&gt;tool_pdf -->
<g id="edge4" class="edge">
<title>src_raid0&#45;&gt;tool_pdf</title>
<path fill="none" stroke="#ff6600" stroke-width="2.5" d="M193.03,-519.5C254.31,-519.5 341.5,-519.5 417.5,-519.5"/>
<polygon fill="#ff6600" stroke="#ff6600" stroke-width="2.5" points="417.67,-523 427.67,-519.5 417.67,-516 417.67,-523"/>
<text text-anchor="middle" x="327.5" y="-522.5" font-family="Courier New" font-size="10.00">&#45;&#45;pdf &#160;(sudo)</text>
</g>
<!-- dst_aiml -->
<g id="node8" class="node">
<title>dst_aiml</title>
<path fill="#0a001a" stroke="#ff00ff" d="M1045,-241C1045,-241 902,-241 902,-241 896,-241 890,-235 890,-229 890,-229 890,-206 890,-206 890,-200 896,-194 902,-194 902,-194 1045,-194 1045,-194 1051,-194 1057,-200 1057,-206 1057,-206 1057,-229 1057,-229 1057,-235 1051,-241 1045,-241"/>
<text text-anchor="middle" x="973.5" y="-227.4" font-family="Courier New" font-size="12.00" fill="#ff00ff">AI&#45;ML_Papers_backup/</text>
<text text-anchor="middle" x="973.5" y="-214.4" font-family="Courier New" font-size="12.00" fill="#ff00ff">/mnt/hitachi_2tb</text>
<text text-anchor="middle" x="973.5" y="-201.4" font-family="Courier New" font-size="12.00" fill="#ff00ff">rsync mirror</text>
</g>
<!-- tool_rsync&#45;&gt;dst_aiml -->
<g id="edge6" class="edge">
<title>tool_rsync&#45;&gt;dst_aiml</title>
<path fill="none" stroke="#ff00ff" stroke-width="2.5" d="M676.02,-159.19C737.98,-171.37 818.44,-187.2 879.91,-199.29"/>
<polygon fill="#ff00ff" stroke="#ff00ff" stroke-width="2.5" points="879.5,-202.78 889.99,-201.27 880.85,-195.91 879.5,-202.78"/>
</g>
<!-- dst_cs -->
<g id="node9" class="node">
<title>dst_cs</title>
<path fill="#0a001a" stroke="#ff00ff" d="M1060,-144C1060,-144 887,-144 887,-144 881,-144 875,-138 875,-132 875,-132 875,-109 875,-109 875,-103 881,-97 887,-97 887,-97 1060,-97 1060,-97 1066,-97 1072,-103 1072,-109 1072,-109 1072,-132 1072,-132 1072,-138 1066,-144 1060,-144"/>
<text text-anchor="middle" x="973.5" y="-130.4" font-family="Courier New" font-size="12.00" fill="#ff00ff">computer_science_backup/</text>
<text text-anchor="middle" x="973.5" y="-117.4" font-family="Courier New" font-size="12.00" fill="#ff00ff">/mnt/hitachi_2tb</text>
<text text-anchor="middle" x="973.5" y="-104.4" font-family="Courier New" font-size="12.00" fill="#ff00ff">rsync mirror</text>
</g>
<!-- tool_rsync&#45;&gt;dst_cs -->
<g id="edge7" class="edge">
<title>tool_rsync&#45;&gt;dst_cs</title>
<path fill="none" stroke="#ff00ff" stroke-width="2.5" d="M698.46,-134.5C751.25,-131.8 813.13,-128.64 864.72,-126.01"/>
<polygon fill="#ff00ff" stroke="#ff00ff" stroke-width="2.5" points="865.09,-129.49 874.9,-125.49 864.73,-122.5 865.09,-129.49"/>
</g>
<!-- dst_computers -->
<g id="node10" class="node">
<title>dst_computers</title>
<path fill="#0a001a" stroke="#ff00ff" d="M1033.5,-47C1033.5,-47 913.5,-47 913.5,-47 907.5,-47 901.5,-41 901.5,-35 901.5,-35 901.5,-12 901.5,-12 901.5,-6 907.5,0 913.5,0 913.5,0 1033.5,0 1033.5,0 1039.5,0 1045.5,-6 1045.5,-12 1045.5,-12 1045.5,-35 1045.5,-35 1045.5,-41 1039.5,-47 1033.5,-47"/>
<text text-anchor="middle" x="973.5" y="-33.4" font-family="Courier New" font-size="12.00" fill="#ff00ff">computers_backup/</text>
<text text-anchor="middle" x="973.5" y="-20.4" font-family="Courier New" font-size="12.00" fill="#ff00ff">/mnt/hitachi_2tb</text>
<text text-anchor="middle" x="973.5" y="-7.4" font-family="Courier New" font-size="12.00" fill="#ff00ff">rsync mirror</text>
</g>
<!-- tool_rsync&#45;&gt;dst_computers -->
<g id="edge8" class="edge">
<title>tool_rsync&#45;&gt;dst_computers</title>
<path fill="none" stroke="#ff00ff" stroke-width="2.5" d="M664.99,-115.4C731.98,-95.38 825.25,-67.51 891.46,-47.72"/>
<polygon fill="#ff00ff" stroke="#ff00ff" stroke-width="2.5" points="892.86,-50.95 901.44,-44.74 890.85,-44.25 892.86,-50.95"/>
</g>
<!-- statuslog -->
<g id="node13" class="node">
<title>statuslog</title>
<polygon fill="#1a1a00" stroke="#ffff00" points="1066,-338 875,-338 875,-291 1072,-291 1072,-332 1066,-338"/>
<polyline fill="none" stroke="#ffff00" points="1066,-338 1066,-332 "/>
<polyline fill="none" stroke="#ffff00" points="1072,-332 1066,-332 "/>
<text text-anchor="middle" x="973.5" y="-324.4" font-family="Courier New" font-size="12.00" fill="#ffff00">/var/log/backup&#45;wizard/</text>
<text text-anchor="middle" x="973.5" y="-311.4" font-family="Courier New" font-size="12.00" fill="#ffff00">last_run.log</text>
<text text-anchor="middle" x="973.5" y="-298.4" font-family="Courier New" font-size="12.00" fill="#ffff00">(updated after each job)</text>
</g>
<!-- tool_rsync&#45;&gt;statuslog -->
<g id="edge11" class="edge">
<title>tool_rsync&#45;&gt;statuslog</title>
<path fill="none" stroke="#ffff00" stroke-dasharray="1,5" d="M649.91,-174C703.74,-199.84 780.64,-236.03 849,-265.5 865.89,-272.78 884.24,-280.28 901.5,-287.16"/>
<polygon fill="#ffff00" stroke="#ffff00" points="910.96,-290.91 900.01,-291.4 906.31,-289.06 901.66,-287.22 901.66,-287.22 901.66,-287.22 906.31,-289.06 903.32,-283.04 910.96,-290.91 910.96,-290.91"/>
</g>
<!-- dst_restic -->
<g id="node11" class="node">
<title>dst_restic</title>
<path fill="#0a001a" stroke="#bf00ff" d="M1086,-435C1086,-435 861,-435 861,-435 855,-435 849,-429 849,-423 849,-423 849,-400 849,-400 849,-394 855,-388 861,-388 861,-388 1086,-388 1086,-388 1092,-388 1098,-394 1098,-400 1098,-400 1098,-423 1098,-423 1098,-429 1092,-435 1086,-435"/>
<text text-anchor="middle" x="973.5" y="-421.4" font-family="Courier New" font-size="12.00" fill="#bf00ff">restic_repos/ai&#45;ml&#45;papers/</text>
<text text-anchor="middle" x="973.5" y="-408.4" font-family="Courier New" font-size="12.00" fill="#bf00ff">/mnt/hitachi_2tb</text>
<text text-anchor="middle" x="973.5" y="-395.4" font-family="Courier New" font-size="12.00" fill="#bf00ff">encrypted · deduped · versioned</text>
</g>
<!-- tool_restic&#45;&gt;dst_restic -->
<g id="edge9" class="edge">
<title>tool_restic&#45;&gt;dst_restic</title>
<path fill="none" stroke="#bf00ff" stroke-width="2.5" stroke-dasharray="5,2" d="M684.89,-356.4C732.35,-365.49 789.14,-376.37 839.66,-386.05"/>
<polygon fill="#bf00ff" stroke="#bf00ff" stroke-width="2.5" points="839.2,-389.53 849.68,-387.97 840.52,-382.65 839.2,-389.53"/>
</g>
<!-- tool_restic&#45;&gt;statuslog -->
<g id="edge12" class="edge">
<title>tool_restic&#45;&gt;statuslog</title>
<path fill="none" stroke="#ffff00" stroke-dasharray="1,5" d="M709.73,-329.27C759.88,-326.45 816.69,-323.26 864.64,-320.56"/>
<polygon fill="#ffff00" stroke="#ffff00" points="874.72,-319.99 864.99,-325.05 869.73,-320.27 864.74,-320.56 864.74,-320.56 864.74,-320.56 869.73,-320.27 864.49,-316.06 874.72,-319.99 874.72,-319.99"/>
</g>
<!-- dst_pdf -->
<g id="node12" class="node">
<title>dst_pdf</title>
<path fill="#0a1a0a" stroke="#39ff14" d="M1060,-548C1060,-548 887,-548 887,-548 881,-548 875,-542 875,-536 875,-536 875,-513 875,-513 875,-507 881,-501 887,-501 887,-501 1060,-501 1060,-501 1066,-501 1072,-507 1072,-513 1072,-513 1072,-536 1072,-536 1072,-542 1066,-548 1060,-548"/>
<text text-anchor="middle" x="973.5" y="-534.4" font-family="Courier New" font-size="12.00" fill="#39ff14">pdf_backup</text>
<text text-anchor="middle" x="973.5" y="-521.4" font-family="Courier New" font-size="12.00" fill="#39ff14">/mnt/pdf_backup &#160;(sda)</text>
<text text-anchor="middle" x="973.5" y="-508.4" font-family="Courier New" font-size="12.00" fill="#39ff14">rsync mirror · 575G free</text>
</g>
<!-- tool_pdf&#45;&gt;dst_pdf -->
<g id="edge10" class="edge">
<title>tool_pdf&#45;&gt;dst_pdf</title>
<path fill="none" stroke="#ff6600" stroke-width="2.5" d="M727.34,-521.37C772.88,-521.95 822.24,-522.58 864.65,-523.12"/>
<polygon fill="#ff6600" stroke="#ff6600" stroke-width="2.5" points="864.67,-526.62 874.71,-523.25 864.76,-519.62 864.67,-526.62"/>
</g>
<!-- tool_pdf&#45;&gt;statuslog -->
<g id="edge13" class="edge">
<title>tool_pdf&#45;&gt;statuslog</title>
<path fill="none" stroke="#ffff00" stroke-dasharray="1,5" d="M644.08,-484.6C671.25,-469.41 703.3,-451.28 732,-434.5 784.51,-403.8 794.54,-390.59 849,-363.5 864.45,-355.81 881.42,-348.44 897.7,-341.84"/>
<polygon fill="#ffff00" stroke="#ffff00" points="907.19,-338.05 899.57,-345.94 902.54,-339.91 897.9,-341.76 897.9,-341.76 897.9,-341.76 902.54,-339.91 896.23,-337.58 907.19,-338.05 907.19,-338.05"/>
</g>
<!-- motd -->
<g id="node14" class="node">
<title>motd</title>
<path fill="#001a1a" stroke="#00f5ff" d="M1610.53,-361.5C1610.53,-361.5 1372.55,-361.5 1372.55,-361.5 1366.55,-361.5 1357.05,-356.62 1353.56,-351.75 1353.56,-351.75 1300.15,-277.25 1300.15,-277.25 1296.65,-272.38 1299.16,-267.5 1305.16,-267.5 1305.16,-267.5 1543.14,-267.5 1543.14,-267.5 1549.14,-267.5 1558.63,-272.38 1562.13,-277.25 1562.13,-277.25 1615.54,-351.75 1615.54,-351.75 1619.04,-356.62 1616.53,-361.5 1610.53,-361.5"/>
<text text-anchor="middle" x="1457.84" y="-324.4" font-family="Courier New" font-size="12.00" fill="#00f5ff">MOTD</text>
<text text-anchor="middle" x="1457.84" y="-311.4" font-family="Courier New" font-size="12.00" fill="#00f5ff">/etc/update&#45;motd.d/</text>
<text text-anchor="middle" x="1457.84" y="-298.4" font-family="Courier New" font-size="12.00" fill="#00f5ff">94&#45;backup&#45;status</text>
</g>
<!-- statuslog&#45;&gt;motd -->
<g id="edge14" class="edge">
<title>statuslog&#45;&gt;motd</title>
<path fill="none" stroke="#00f5ff" stroke-width="1.5" stroke-dasharray="5,2" d="M1072.11,-314.5C1142.19,-314.5 1237.69,-314.5 1316.01,-314.5"/>
<polygon fill="#00f5ff" stroke="#00f5ff" stroke-width="1.5" points="1316.45,-318 1326.45,-314.5 1316.45,-311 1316.45,-318"/>
<text text-anchor="middle" x="1195.5" y="-317.5" font-family="Courier New" font-size="10.00">read at login</text>
</g>
</g>
</svg>
