<?xml version="1.0" encoding="UTF-8" standalone="no"?>
<!DOCTYPE svg PUBLIC "-//W3C//DTD SVG 1.1//EN"
 "http://www.w3.org/Graphics/SVG/1.1/DTD/svg11.dtd">
<!-- Generated by graphviz version 2.43.0 (0)
 -->
<!-- Title: wizard_flow Pages: 1 -->
<svg width="4087pt" height="537pt"
 viewBox="0.00 0.00 4086.80 536.80" xmlns="http://www.w3.org/2000/svg" xmlns:xlink="http://www.w3.org/1999/xlink">
<g id="graph0" class="graph" transform="scale(1 1) rotate(0) translate(50.4 486.4)">
<title>wizard_flow</title>
<polygon fill="#0d0d0d" stroke="transparent" points="-50.4,50.4 -50.4,-486.4 4036.4,-486.4 4036.4,50.4 -50.4,50.4"/>
<text text-anchor="middle" x="1993" y="-416" font-family="Courier New" font-size="20.00" fill="#cccccc">worlock backup&#45;wizard — Menu Flow &amp; CLI Flags</text>
<g id="clust1" class="cluster">
<title>cluster_flags</title>
<path fill="#0d0800" stroke="#ff6600" d="M20,-161C20,-161 1310,-161 1310,-161 1316,-161 1322,-167 1322,-173 1322,-173 1322,-241 1322,-241 1322,-247 1316,-253 1310,-253 1310,-253 20,-253 20,-253 14,-253 8,-247 8,-241 8,-241 8,-173 8,-173 8,-167 14,-161 20,-161"/>
<text text-anchor="middle" x="665" y="-240.2" font-family="Courier New" font-size="11.00" fill="#ff6600">Non&#45;Interactive Flags &#160;(exit after completion)</text>
</g>
<g id="clust2" class="cluster">
<title>cluster_rsync</title>
<path fill="#020d02" stroke="#39ff14" d="M1570,-161C1570,-161 2614,-161 2614,-161 2620,-161 2626,-167 2626,-173 2626,-173 2626,-241 2626,-241 2626,-247 2620,-253 2614,-253 2614,-253 1570,-253 1570,-253 1564,-253 1558,-247 1558,-241 1558,-241 1558,-173 1558,-173 1558,-167 1564,-161 1570,-161"/>
<text text-anchor="middle" x="2092" y="-240.2" font-family="Courier New" font-size="11.00" fill="#39ff14">Rsync Submenu &#160;[1]</text>
</g>
<g id="clust3" class="cluster">
<title>cluster_restic</title>
<path fill="#06000a" stroke="#bf00ff" d="M2971,-306C2971,-306 3966,-306 3966,-306 3972,-306 3978,-312 3978,-318 3978,-318 3978,-386 3978,-386 3978,-392 3972,-398 3966,-398 3966,-398 2971,-398 2971,-398 2965,-398 2959,-392 2959,-386 2959,-386 2959,-318 2959,-318 2959,-312 2965,-306 2971,-306"/>
<text text-anchor="middle" x="3468.5" y="-385.2" font-family="Courier New" font-size="11.00" fill="#bf00ff">Restic Submenu &#160;[2]</text>
</g>
<g id="clust4" class="cluster">
<title>cluster_other</title>
<path fill="#0a0a0a" stroke="#444444" d="M1100,-8C1100,-8 1425,-8 1425,-8 1431,-8 1437,-14 1437,-20 1437,-20 1437,-96 1437,-96 1437,-102 1431,-108 1425,-108 1425,-108 1100,-108 1100,-108 1094,-108 1088,-102 1088,-96 1088,-96 1088,-20 1088,-20 1088,-14 1094,-8 1100,-8"/>
<text text-anchor="middle" x="1262.5" y="-95.2" font-family="Courier New" font-size="11.00" fill="#cccccc">Other Menus</text>
</g>
<!-- cli -->
<g id="node1" class="node">
<title>cli</title>
<path fill="#0f3460" stroke="#00f5ff" d="M654.77,-321.64C654.77,-321.64 748.73,-305.79 748.73,-305.79 753.87,-304.93 764.13,-304.93 769.27,-305.79 769.27,-305.79 863.23,-321.64 863.23,-321.64 868.36,-322.5 873.48,-328.57 873.46,-333.78 873.46,-333.78 873.43,-344.19 873.43,-344.19 873.41,-349.4 868.18,-354.6 862.98,-354.6 862.98,-354.6 655.02,-354.6 655.02,-354.6 649.82,-354.6 644.59,-349.4 644.57,-344.19 644.57,-344.19 644.54,-333.78 644.54,-333.78 644.52,-328.57 649.64,-322.5 654.77,-321.64"/>
<text text-anchor="middle" x="759" y="-335.2" font-family="Courier New" font-size="11.00" fill="#00f5ff">backup&#45;wizard</text>
<text text-anchor="middle" x="759" y="-323.2" font-family="Courier New" font-size="11.00" fill="#00f5ff">[CLI entry point]</text>
</g>
<!-- flag_aiml -->
<g id="node2" class="node">
<title>flag_aiml</title>
<path fill="#0a1a0a" stroke="#39ff14" d="M142,-205C142,-205 28,-205 28,-205 22,-205 16,-199 16,-193 16,-193 16,-181 16,-181 16,-175 22,-169 28,-169 28,-169 142,-169 142,-169 148,-169 154,-175 154,-181 154,-181 154,-193 154,-193 154,-199 148,-205 142,-205"/>
<text text-anchor="middle" x="85" y="-190.2" font-family="Courier New" font-size="11.00" fill="#39ff14">&#45;&#45;aiml</text>
<text text-anchor="middle" x="85" y="-178.2" font-family="Courier New" font-size="11.00" fill="#39ff14">rsync AI&#45;ML Papers</text>
</g>
<!-- cli&#45;&gt;flag_aiml -->
<g id="edge1" class="edge">
<title>cli&#45;&gt;flag_aiml</title>
<path fill="none" stroke="#39ff14" stroke-width="1.8" d="M647.09,-322.88C501.46,-311.17 255.72,-287.11 172,-253 148.74,-243.52 126.13,-226.31 109.79,-211.98"/>
<polygon fill="#39ff14" stroke="#39ff14" stroke-width="1.8" points="112.07,-209.32 102.3,-205.22 107.38,-214.52 112.07,-209.32"/>
<text text-anchor="middle" x="246" y="-263.8" font-family="Courier New" font-size="9.00">&#45;&#45;aiml</text>
</g>
<!-- flag_cs -->
<g id="node3" class="node">
<title>flag_cs</title>
<path fill="#0a1a0a" stroke="#39ff14" d="M343.5,-205C343.5,-205 202.5,-205 202.5,-205 196.5,-205 190.5,-199 190.5,-193 190.5,-193 190.5,-181 190.5,-181 190.5,-175 196.5,-169 202.5,-169 202.5,-169 343.5,-169 343.5,-169 349.5,-169 355.5,-175 355.5,-181 355.5,-181 355.5,-193 355.5,-193 355.5,-199 349.5,-205 343.5,-205"/>
<text text-anchor="middle" x="273" y="-190.2" font-family="Courier New" font-size="11.00" fill="#39ff14">&#45;&#45;cs</text>
<text text-anchor="middle" x="273" y="-178.2" font-family="Courier New" font-size="11.00" fill="#39ff14">rsync computer science</text>
</g>
<!-- cli&#45;&gt;flag_cs -->
<g id="edge2" class="edge">
<title>cli&#45;&gt;flag_cs</title>
<path fill="none" stroke="#39ff14" stroke-width="1.8" d="M658.34,-320.98C578.88,-310.64 466.41,-290.54 374,-253 348.25,-242.54 321.94,-225.35 302.63,-211.28"/>
<polygon fill="#39ff14" stroke="#39ff14" stroke-width="1.8" points="304.65,-208.42 294.54,-205.27 300.48,-214.04 304.65,-208.42"/>
<text text-anchor="middle" x="425" y="-263.8" font-family="Courier New" font-size="9.00">&#45;&#45;cs</text>
</g>
<!-- flag_comps -->
<g id="node4" class="node">
<title>flag_comps</title>
<path fill="#0a1a0a" stroke="#39ff14" d="M498,-205C498,-205 404,-205 404,-205 398,-205 392,-199 392,-193 392,-193 392,-181 392,-181 392,-175 398,-169 404,-169 404,-169 498,-169 498,-169 504,-169 510,-175 510,-181 510,-181 510,-193 510,-193 510,-199 504,-205 498,-205"/>
<text text-anchor="middle" x="451" y="-190.2" font-family="Courier New" font-size="11.00" fill="#39ff14">&#45;&#45;computers</text>
<text text-anchor="middle" x="451" y="-178.2" font-family="Courier New" font-size="11.00" fill="#39ff14">rsync computers</text>
</g>
<!-- cli&#45;&gt;flag_comps -->
<g id="edge3" class="edge">
<title>cli&#45;&gt;flag_comps</title>
<path fill="none" stroke="#39ff14" stroke-width="1.8" d="M691.49,-315.4C643.87,-302.7 579.62,-282.1 528,-253 508.46,-241.98 489.17,-225.69 474.79,-212.17"/>
<polygon fill="#39ff14" stroke="#39ff14" stroke-width="1.8" points="476.96,-209.41 467.33,-205 472.11,-214.46 476.96,-209.41"/>
<text text-anchor="middle" x="593" y="-263.8" font-family="Courier New" font-size="9.00">&#45;&#45;computers</text>
</g>
<!-- flag_all -->
<g id="node5" class="node">
<title>flag_all</title>
<path fill="#0a1a0a" stroke="#ffff00" stroke-width="2" d="M652,-205C652,-205 558,-205 558,-205 552,-205 546,-199 546,-193 546,-193 546,-181 546,-181 546,-175 552,-169 558,-169 558,-169 652,-169 652,-169 658,-169 664,-175 664,-181 664,-181 664,-193 664,-193 664,-199 658,-205 652,-205"/>
<text text-anchor="middle" x="605" y="-190.2" font-family="Courier New" font-size="11.00" fill="#ffff00">&#45;&#45;all&#45;archives</text>
<text text-anchor="middle" x="605" y="-178.2" font-family="Courier New" font-size="11.00" fill="#ffff00">rsync all three</text>
</g>
<!-- cli&#45;&gt;flag_all -->
<g id="edge4" class="edge">
<title>cli&#45;&gt;flag_all</title>
<path fill="none" stroke="#ffff00" stroke-width="2" d="M725.69,-309.61C709.95,-298.84 691.3,-285.1 676,-271 656.71,-253.22 637.53,-230.42 623.98,-213.21"/>
<polygon fill="#ffff00" stroke="#ffff00" stroke-width="2" points="626.7,-211.01 617.8,-205.26 621.17,-215.3 626.7,-211.01"/>
<text text-anchor="middle" x="713" y="-263.8" font-family="Courier New" font-size="9.00">&#45;&#45;all&#45;archives</text>
</g>
<!-- flag_restic -->
<g id="node6" class="node">
<title>flag_restic</title>
<path fill="#1a001a" stroke="#bf00ff" d="M806,-205C806,-205 712,-205 712,-205 706,-205 700,-199 700,-193 700,-193 700,-181 700,-181 700,-175 706,-169 712,-169 712,-169 806,-169 806,-169 812,-169 818,-175 818,-181 818,-181 818,-193 818,-193 818,-199 812,-205 806,-205"/>
<text text-anchor="middle" x="759" y="-190.2" font-family="Courier New" font-size="11.00" fill="#bf00ff">&#45;&#45;aiml&#45;restic</text>
<text text-anchor="middle" x="759" y="-178.2" font-family="Courier New" font-size="11.00" fill="#bf00ff">restic snapshot</text>
</g>
<!-- cli&#45;&gt;flag_restic -->
<g id="edge5" class="edge">
<title>cli&#45;&gt;flag_restic</title>
<path fill="none" stroke="#bf00ff" stroke-width="1.8" d="M759,-303.77C759,-278.38 759,-240.73 759,-215.31"/>
<polygon fill="#bf00ff" stroke="#bf00ff" stroke-width="1.8" points="762.5,-215.25 759,-205.25 755.5,-215.25 762.5,-215.25"/>
<text text-anchor="middle" x="793.5" y="-263.8" font-family="Courier New" font-size="9.00">&#45;&#45;aiml&#45;restic</text>
</g>
<!-- flag_pdf -->
<g id="node7" class="node">
<title>flag_pdf</title>
<path fill="#1a0a00" stroke="#ff6600" d="M946,-205C946,-205 866,-205 866,-205 860,-205 854,-199 854,-193 854,-193 854,-181 854,-181 854,-175 860,-169 866,-169 866,-169 946,-169 946,-169 952,-169 958,-175 958,-181 958,-181 958,-193 958,-193 958,-199 952,-205 946,-205"/>
<text text-anchor="middle" x="906" y="-190.2" font-family="Courier New" font-size="11.00" fill="#ff6600">&#45;&#45;pdf &#160;(sudo)</text>
<text text-anchor="middle" x="906" y="-178.2" font-family="Courier New" font-size="11.00" fill="#ff6600">pdf&#45;backup.sh</text>
</g>
<!-- cli&#45;&gt;flag_pdf -->
<g id="edge6" class="edge">
<title>cli&#45;&gt;flag_pdf</title>
<path fill="none" stroke="#ff6600" stroke-width="1.8" d="M790.66,-309.13C805.37,-298.35 822.72,-284.75 837,-271 855.51,-253.18 873.98,-230.64 887.15,-213.55"/>
<polygon fill="#ff6600" stroke="#ff6600" stroke-width="1.8" points="890.26,-215.24 893.52,-205.16 884.69,-211.01 890.26,-215.24"/>
<text text-anchor="middle" x="859.5" y="-263.8" font-family="Courier New" font-size="9.00">&#45;&#45;pdf</text>
</g>
<!-- flag_status -->
<g id="node8" class="node">
<title>flag_status</title>
<path fill="#1a1a00" stroke="#ffff00" d="M1127.5,-205C1127.5,-205 1006.5,-205 1006.5,-205 1000.5,-205 994.5,-199 994.5,-193 994.5,-193 994.5,-181 994.5,-181 994.5,-175 1000.5,-169 1006.5,-169 1006.5,-169 1127.5,-169 1127.5,-169 1133.5,-169 1139.5,-175 1139.5,-181 1139.5,-181 1139.5,-193 1139.5,-193 1139.5,-199 1133.5,-205 1127.5,-205"/>
<text text-anchor="middle" x="1067" y="-190.2" font-family="Courier New" font-size="11.00" fill="#ffff00">&#45;&#45;status</text>
<text text-anchor="middle" x="1067" y="-178.2" font-family="Courier New" font-size="11.00" fill="#ffff00">print status + exit</text>
</g>
<!-- cli&#45;&gt;flag_status -->
<g id="edge7" class="edge">
<title>cli&#45;&gt;flag_status</title>
<path fill="none" stroke="#ffff00" stroke-width="1.8" d="M873.7,-331.43C1256.39,-332.33 2468.55,-330.43 2526,-271 2529.09,-267.8 2529.13,-264.15 2526,-261 2512.6,-247.53 1176.08,-258.85 1158,-253 1132.92,-244.88 1108.84,-227.09 1091.76,-212.17"/>
<polygon fill="#ffff00" stroke="#ffff00" stroke-width="1.8" points="1093.73,-209.23 1083.97,-205.13 1089.04,-214.43 1093.73,-209.23"/>
<text text-anchor="middle" x="2549.5" y="-263.8" font-family="Courier New" font-size="9.00">&#45;&#45;status</text>
</g>
<!-- flag_help -->
<g id="node9" class="node">
<title>flag_help</title>
<path fill="#1a1a1a" stroke="#888888" d="M1302,-205C1302,-205 1188,-205 1188,-205 1182,-205 1176,-199 1176,-193 1176,-193 1176,-181 1176,-181 1176,-175 1182,-169 1188,-169 1188,-169 1302,-169 1302,-169 1308,-169 1314,-175 1314,-181 1314,-181 1314,-193 1314,-193 1314,-199 1308,-205 1302,-205"/>
<text text-anchor="middle" x="1245" y="-190.2" font-family="Courier New" font-size="11.00" fill="#888888">&#45;&#45;help</text>
<text text-anchor="middle" x="1245" y="-178.2" font-family="Courier New" font-size="11.00" fill="#888888">print usage + exit</text>
</g>
<!-- cli&#45;&gt;flag_help -->
<g id="edge8" class="edge">
<title>cli&#45;&gt;flag_help</title>
<path fill="none" stroke="#888888" stroke-width="1.8" d="M873.79,-331.56C1264.32,-332.9 2520.59,-332.4 2580,-271 2583.09,-267.81 2583.13,-264.15 2580,-261 2567.78,-248.7 1348.43,-258.52 1332,-253 1307.73,-244.85 1284.73,-227.06 1268.48,-212.15"/>
<polygon fill="#888888" stroke="#888888" stroke-width="1.8" points="1270.73,-209.46 1261.07,-205.11 1265.92,-214.54 1270.73,-209.46"/>
<text text-anchor="middle" x="2598" y="-263.8" font-family="Courier New" font-size="9.00">&#45;&#45;help</text>
</g>
<!-- main -->
<g id="node10" class="node">
<title>main</title>
<path fill="#0f3460" stroke="#00f5ff" d="M1362,-169C1362,-169 1518,-169 1518,-169 1524,-169 1530,-175 1530,-181 1530,-181 1530,-193 1530,-193 1530,-199 1524,-205 1518,-205 1518,-205 1362,-205 1362,-205 1356,-205 1350,-199 1350,-193 1350,-193 1350,-181 1350,-181 1350,-175 1356,-169 1362,-169"/>
<text text-anchor="middle" x="1440" y="-184.2" font-family="Courier New" font-size="11.00" fill="#00f5ff">Main Menu</text>
</g>
<!-- cli&#45;&gt;main -->
<g id="edge9" class="edge">
<title>cli&#45;&gt;main</title>
<path fill="none" stroke="#00f5ff" stroke-width="2.5" d="M873.82,-329.44C1275.13,-323.71 2592.46,-302.54 2623,-271 2626.09,-267.81 2626.13,-264.15 2623,-261 2612.49,-250.41 1563.37,-257.02 1549,-253 1519.53,-244.76 1489.96,-226.34 1469.07,-211.2"/>
<polygon fill="#00f5ff" stroke="#00f5ff" stroke-width="2.5" points="1471.06,-208.32 1460.95,-205.16 1466.89,-213.94 1471.06,-208.32"/>
<text text-anchor="middle" x="2651.5" y="-263.8" font-family="Courier New" font-size="9.00">(no flags)</text>
</g>
<!-- status_menu -->
<g id="node23" class="node">
<title>status_menu</title>
<path fill="#1a1a00" stroke="#ffff00" d="M1249.5,-60C1249.5,-60 1108.5,-60 1108.5,-60 1102.5,-60 1096.5,-54 1096.5,-48 1096.5,-48 1096.5,-28 1096.5,-28 1096.5,-22 1102.5,-16 1108.5,-16 1108.5,-16 1249.5,-16 1249.5,-16 1255.5,-16 1261.5,-22 1261.5,-28 1261.5,-28 1261.5,-48 1261.5,-48 1261.5,-54 1255.5,-60 1249.5,-60"/>
<text text-anchor="middle" x="1179" y="-47.2" font-family="Courier New" font-size="11.00" fill="#ffff00">3 &#160;Backup Status</text>
<text text-anchor="middle" x="1179" y="-35.2" font-family="Courier New" font-size="11.00" fill="#ffff00">last runs · disk usage</text>
<text text-anchor="middle" x="1179" y="-23.2" font-family="Courier New" font-size="11.00" fill="#ffff00">mount health</text>
</g>
<!-- main&#45;&gt;status_menu -->
<g id="edge12" class="edge">
<title>main&#45;&gt;status_menu</title>
<path fill="none" stroke="#ffff00" stroke-width="1.8" d="M1400.42,-168.87C1367.29,-154.05 1319.12,-131.38 1279,-108 1257.19,-95.29 1233.92,-79.39 1215.32,-66.05"/>
<polygon fill="#ffff00" stroke="#ffff00" stroke-width="1.8" points="1217.28,-63.15 1207.12,-60.12 1213.17,-68.82 1217.28,-63.15"/>
<text text-anchor="middle" x="1312" y="-118.8" font-family="Courier New" font-size="9.00">3</text>
</g>
<!-- config_menu -->
<g id="node24" class="node">
<title>config_menu</title>
<path fill="#001a1a" stroke="#00f5ff" d="M1416.5,-60C1416.5,-60 1309.5,-60 1309.5,-60 1303.5,-60 1297.5,-54 1297.5,-48 1297.5,-48 1297.5,-28 1297.5,-28 1297.5,-22 1303.5,-16 1309.5,-16 1309.5,-16 1416.5,-16 1416.5,-16 1422.5,-16 1428.5,-22 1428.5,-28 1428.5,-28 1428.5,-48 1428.5,-48 1428.5,-54 1422.5,-60 1416.5,-60"/>
<text text-anchor="middle" x="1363" y="-47.2" font-family="Courier New" font-size="11.00" fill="#00f5ff">4 &#160;Configuration</text>
<text text-anchor="middle" x="1363" y="-35.2" font-family="Courier New" font-size="11.00" fill="#00f5ff">source/dest paths</text>
<text text-anchor="middle" x="1363" y="-23.2" font-family="Courier New" font-size="11.00" fill="#00f5ff">restic password</text>
</g>
<!-- main&#45;&gt;config_menu -->
<g id="edge13" class="edge">
<title>main&#45;&gt;config_menu</title>
<path fill="none" stroke="#00f5ff" stroke-width="1.8" d="M1431.02,-168.85C1418.27,-144.52 1394.75,-99.61 1378.98,-69.51"/>
<polygon fill="#00f5ff" stroke="#00f5ff" stroke-width="1.8" points="1381.9,-67.54 1374.16,-60.31 1375.7,-70.79 1381.9,-67.54"/>
<text text-anchor="middle" x="1412" y="-118.8" font-family="Courier New" font-size="9.00">4</text>
</g>
<!-- cluster_rsync -->
<g id="node27" class="node">
<title>cluster_rsync</title>
<path fill="lightgrey" stroke="black" d="M1557,-56C1557,-56 1477,-56 1477,-56 1471,-56 1465,-50 1465,-44 1465,-44 1465,-32 1465,-32 1465,-26 1471,-20 1477,-20 1477,-20 1557,-20 1557,-20 1563,-20 1569,-26 1569,-32 1569,-32 1569,-44 1569,-44 1569,-50 1563,-56 1557,-56"/>
<text text-anchor="middle" x="1517" y="-35.2" font-family="Courier New" font-size="11.00">cluster_rsync</text>
</g>
<!-- main&#45;&gt;cluster_rsync -->
<g id="edge10" class="edge">
<title>main&#45;&gt;cluster_rsync</title>
<path fill="none" stroke="#39ff14" stroke-width="1.8" d="M1448.98,-168.85C1462.37,-143.29 1487.66,-95.01 1503.35,-65.07"/>
<polygon fill="#39ff14" stroke="#39ff14" stroke-width="1.8" points="1506.53,-66.52 1508.07,-56.04 1500.33,-63.28 1506.53,-66.52"/>
<text text-anchor="middle" x="1479" y="-118.8" font-family="Courier New" font-size="9.00">1</text>
</g>
<!-- cluster_restic -->
<g id="node28" class="node">
<title>cluster_restic</title>
<path fill="lightgrey" stroke="black" d="M1704.5,-56C1704.5,-56 1617.5,-56 1617.5,-56 1611.5,-56 1605.5,-50 1605.5,-44 1605.5,-44 1605.5,-32 1605.5,-32 1605.5,-26 1611.5,-20 1617.5,-20 1617.5,-20 1704.5,-20 1704.5,-20 1710.5,-20 1716.5,-26 1716.5,-32 1716.5,-32 1716.5,-44 1716.5,-44 1716.5,-50 1710.5,-56 1704.5,-56"/>
<text text-anchor="middle" x="1661" y="-35.2" font-family="Courier New" font-size="11.00">cluster_restic</text>
</g>
<!-- main&#45;&gt;cluster_restic -->
<g id="edge11" class="edge">
<title>main&#45;&gt;cluster_restic</title>
<path fill="none" stroke="#bf00ff" stroke-width="1.8" d="M1478.76,-168.88C1509.37,-154.56 1552.53,-132.56 1587,-108 1605.35,-94.93 1623.88,-77.63 1637.81,-63.63"/>
<polygon fill="#bf00ff" stroke="#bf00ff" stroke-width="1.8" points="1640.56,-65.83 1645.05,-56.24 1635.55,-60.94 1640.56,-65.83"/>
<text text-anchor="middle" x="1575" y="-118.8" font-family="Courier New" font-size="9.00">2</text>
</g>
<!-- r1 -->
<g id="node11" class="node">
<title>r1</title>
<path fill="#0a1a0a" stroke="#ffff00" d="M2606,-205C2606,-205 2458,-205 2458,-205 2452,-205 2446,-199 2446,-193 2446,-193 2446,-181 2446,-181 2446,-175 2452,-169 2458,-169 2458,-169 2606,-169 2606,-169 2612,-169 2618,-175 2618,-181 2618,-181 2618,-193 2618,-193 2618,-199 2612,-205 2606,-205"/>
<text text-anchor="middle" x="2532" y="-190.2" font-family="Courier New" font-size="11.00" fill="#ffff00">1 &#160;ALL archives</text>
<text text-anchor="middle" x="2532" y="-178.2" font-family="Courier New" font-size="11.00" fill="#ffff00">(aiml + cs + computers)</text>
</g>
<!-- r2 -->
<g id="node12" class="node">
<title>r2</title>
<path fill="#0a1a0a" stroke="#39ff14" d="M2398,-205C2398,-205 2304,-205 2304,-205 2298,-205 2292,-199 2292,-193 2292,-193 2292,-181 2292,-181 2292,-175 2298,-169 2304,-169 2304,-169 2398,-169 2398,-169 2404,-169 2410,-175 2410,-181 2410,-181 2410,-193 2410,-193 2410,-199 2404,-205 2398,-205"/>
<text text-anchor="middle" x="2351" y="-184.2" font-family="Courier New" font-size="11.00" fill="#39ff14">2 &#160;AI&#45;ML Papers</text>
</g>
<!-- dryrun -->
<g id="node25" class="node">
<title>dryrun</title>
<path fill="#1a0a00" stroke="#ff6600" d="M2849.06,-359.07C2849.06,-359.07 2799.94,-336.93 2799.94,-336.93 2794.47,-334.47 2794.47,-329.53 2799.94,-327.07 2799.94,-327.07 2849.06,-304.93 2849.06,-304.93 2854.53,-302.47 2865.47,-302.47 2870.94,-304.93 2870.94,-304.93 2920.06,-327.07 2920.06,-327.07 2925.53,-329.53 2925.53,-334.47 2920.06,-336.93 2920.06,-336.93 2870.94,-359.07 2870.94,-359.07 2865.47,-361.53 2854.53,-361.53 2849.06,-359.07"/>
<text text-anchor="middle" x="2860" y="-335.2" font-family="Courier New" font-size="11.00" fill="#ff6600">Dry run?</text>
<text text-anchor="middle" x="2860" y="-323.2" font-family="Courier New" font-size="11.00" fill="#ff6600">[y/N]</text>
</g>
<!-- r2&#45;&gt;dryrun -->
<g id="edge14" class="edge">
<title>r2&#45;&gt;dryrun</title>
<path fill="none" stroke="#ff6600" stroke-width="1.8" d="M2365.12,-205.28C2379.17,-221.03 2402.31,-243.27 2428,-253 2464.27,-266.74 2740.72,-247.27 2777,-261 2798.77,-269.24 2818.85,-285.81 2833.8,-300.77"/>
<polygon fill="#ff6600" stroke="#ff6600" stroke-width="1.8" points="2831.68,-303.61 2841.14,-308.39 2836.72,-298.76 2831.68,-303.61"/>
</g>
<!-- r3 -->
<g id="node13" class="node">
<title>r3</title>
<path fill="#0a1a0a" stroke="#39ff14" d="M2243.5,-205C2243.5,-205 2122.5,-205 2122.5,-205 2116.5,-205 2110.5,-199 2110.5,-193 2110.5,-193 2110.5,-181 2110.5,-181 2110.5,-175 2116.5,-169 2122.5,-169 2122.5,-169 2243.5,-169 2243.5,-169 2249.5,-169 2255.5,-175 2255.5,-181 2255.5,-181 2255.5,-193 2255.5,-193 2255.5,-199 2249.5,-205 2243.5,-205"/>
<text text-anchor="middle" x="2183" y="-184.2" font-family="Courier New" font-size="11.00" fill="#39ff14">3 &#160;computer science</text>
</g>
<!-- r4 -->
<g id="node14" class="node">
<title>r4</title>
<path fill="#0a1a0a" stroke="#39ff14" d="M2062,-205C2062,-205 1988,-205 1988,-205 1982,-205 1976,-199 1976,-193 1976,-193 1976,-181 1976,-181 1976,-175 1982,-169 1988,-169 1988,-169 2062,-169 2062,-169 2068,-169 2074,-175 2074,-181 2074,-181 2074,-193 2074,-193 2074,-199 2068,-205 2062,-205"/>
<text text-anchor="middle" x="2025" y="-184.2" font-family="Courier New" font-size="11.00" fill="#39ff14">4 &#160;computers</text>
</g>
<!-- r5 -->
<g id="node15" class="node">
<title>r5</title>
<path fill="#1a0a00" stroke="#ff6600" d="M1927.5,-205C1927.5,-205 1772.5,-205 1772.5,-205 1766.5,-205 1760.5,-199 1760.5,-193 1760.5,-193 1760.5,-181 1760.5,-181 1760.5,-175 1766.5,-169 1772.5,-169 1772.5,-169 1927.5,-169 1927.5,-169 1933.5,-169 1939.5,-175 1939.5,-181 1939.5,-181 1939.5,-193 1939.5,-193 1939.5,-199 1933.5,-205 1927.5,-205"/>
<text text-anchor="middle" x="1850" y="-190.2" font-family="Courier New" font-size="11.00" fill="#ff6600">5 &#160;PDF Archive</text>
<text text-anchor="middle" x="1850" y="-178.2" font-family="Courier New" font-size="11.00" fill="#ff6600">(sudo via pdf&#45;backup.sh)</text>
</g>
<!-- r6 -->
<g id="node16" class="node">
<title>r6</title>
<path fill="#1a1a1a" stroke="#888888" d="M1712,-205C1712,-205 1578,-205 1578,-205 1572,-205 1566,-199 1566,-193 1566,-193 1566,-181 1566,-181 1566,-175 1572,-169 1578,-169 1578,-169 1712,-169 1712,-169 1718,-169 1724,-175 1724,-181 1724,-181 1724,-193 1724,-193 1724,-199 1718,-205 1712,-205"/>
<text text-anchor="middle" x="1645" y="-184.2" font-family="Courier New" font-size="11.00" fill="#888888">6 &#160;Custom source/dest</text>
</g>
<!-- rc1 -->
<g id="node17" class="node">
<title>rc1</title>
<path fill="#1a001a" stroke="#bf00ff" d="M3957.5,-350C3957.5,-350 3850.5,-350 3850.5,-350 3844.5,-350 3838.5,-344 3838.5,-338 3838.5,-338 3838.5,-326 3838.5,-326 3838.5,-320 3844.5,-314 3850.5,-314 3850.5,-314 3957.5,-314 3957.5,-314 3963.5,-314 3969.5,-320 3969.5,-326 3969.5,-326 3969.5,-338 3969.5,-338 3969.5,-344 3963.5,-350 3957.5,-350"/>
<text text-anchor="middle" x="3904" y="-335.2" font-family="Courier New" font-size="11.00" fill="#bf00ff">1 &#160;AI&#45;ML Papers</text>
<text text-anchor="middle" x="3904" y="-323.2" font-family="Courier New" font-size="11.00" fill="#bf00ff">(max compression)</text>
</g>
<!-- rc2 -->
<g id="node18" class="node">
<title>rc2</title>
<path fill="#1a001a" stroke="#bf00ff" d="M3790.5,-350C3790.5,-350 3689.5,-350 3689.5,-350 3683.5,-350 3677.5,-344 3677.5,-338 3677.5,-338 3677.5,-326 3677.5,-326 3677.5,-320 3683.5,-314 3689.5,-314 3689.5,-314 3790.5,-314 3790.5,-314 3796.5,-314 3802.5,-320 3802.5,-326 3802.5,-326 3802.5,-338 3802.5,-338 3802.5,-344 3796.5,-350 3790.5,-350"/>
<text text-anchor="middle" x="3740" y="-329.2" font-family="Courier New" font-size="11.00" fill="#bf00ff">2 &#160;Custom source</text>
</g>
<!-- rc3 -->
<g id="node19" class="node">
<title>rc3</title>
<path fill="#1a001a" stroke="#00f5ff" d="M3629.5,-350C3629.5,-350 3522.5,-350 3522.5,-350 3516.5,-350 3510.5,-344 3510.5,-338 3510.5,-338 3510.5,-326 3510.5,-326 3510.5,-320 3516.5,-314 3522.5,-314 3522.5,-314 3629.5,-314 3629.5,-314 3635.5,-314 3641.5,-320 3641.5,-326 3641.5,-326 3641.5,-338 3641.5,-338 3641.5,-344 3635.5,-350 3629.5,-350"/>
<text text-anchor="middle" x="3576" y="-329.2" font-family="Courier New" font-size="11.00" fill="#00f5ff">3 &#160;List snapshots</text>
</g>
<!-- rc4 -->
<g id="node20" class="node">
<title>rc4</title>
<path fill="#1a001a" stroke="#00f5ff" d="M3462.5,-350C3462.5,-350 3341.5,-350 3341.5,-350 3335.5,-350 3329.5,-344 3329.5,-338 3329.5,-338 3329.5,-326 3329.5,-326 3329.5,-320 3335.5,-314 3341.5,-314 3341.5,-314 3462.5,-314 3462.5,-314 3468.5,-314 3474.5,-320 3474.5,-326 3474.5,-326 3474.5,-338 3474.5,-338 3474.5,-344 3468.5,-350 3462.5,-350"/>
<text text-anchor="middle" x="3402" y="-329.2" font-family="Courier New" font-size="11.00" fill="#00f5ff">4 &#160;Restore snapshot</text>
</g>
<!-- rc5 -->
<g id="node21" class="node">
<title>rc5</title>
<path fill="#1a001a" stroke="#ff6600" d="M3281.5,-350C3281.5,-350 3140.5,-350 3140.5,-350 3134.5,-350 3128.5,-344 3128.5,-338 3128.5,-338 3128.5,-326 3128.5,-326 3128.5,-320 3134.5,-314 3140.5,-314 3140.5,-314 3281.5,-314 3281.5,-314 3287.5,-314 3293.5,-320 3293.5,-326 3293.5,-326 3293.5,-338 3293.5,-338 3293.5,-344 3287.5,-350 3281.5,-350"/>
<text text-anchor="middle" x="3211" y="-329.2" font-family="Courier New" font-size="11.00" fill="#ff6600">5 &#160;Prune old snapshots</text>
</g>
<!-- rc6 -->
<g id="node22" class="node">
<title>rc6</title>
<path fill="#1a001a" stroke="#888888" d="M3080.5,-350C3080.5,-350 2979.5,-350 2979.5,-350 2973.5,-350 2967.5,-344 2967.5,-338 2967.5,-338 2967.5,-326 2967.5,-326 2967.5,-320 2973.5,-314 2979.5,-314 2979.5,-314 3080.5,-314 3080.5,-314 3086.5,-314 3092.5,-320 3092.5,-326 3092.5,-326 3092.5,-338 3092.5,-338 3092.5,-344 3086.5,-350 3080.5,-350"/>
<text text-anchor="middle" x="3030" y="-329.2" font-family="Courier New" font-size="11.00" fill="#888888">6 &#160;Init new repo</text>
</g>
<!-- dryrun&#45;&gt;r2 -->
<g id="edge16" class="edge">
<title>dryrun&#45;&gt;r2</title>
<path fill="none" stroke="#39ff14" stroke-width="1.8" stroke-dasharray="5,2" d="M2849.9,-304.18C2842.5,-288.61 2830.8,-270.29 2814,-261 2795.23,-250.62 2448.07,-260.57 2428,-253 2406.12,-244.74 2386.09,-227.38 2371.95,-212.68"/>
<polygon fill="#39ff14" stroke="#39ff14" stroke-width="1.8" points="2374.47,-210.25 2365.11,-205.29 2369.34,-215.01 2374.47,-210.25"/>
<text text-anchor="middle" x="2855" y="-263.8" font-family="Courier New" font-size="9.00">n → run now</text>
</g>
<!-- proceed -->
<g id="node26" class="node">
<title>proceed</title>
<path fill="#1a0a00" stroke="#ff6600" d="M2714.06,-214.07C2714.06,-214.07 2664.94,-191.93 2664.94,-191.93 2659.47,-189.47 2659.47,-184.53 2664.94,-182.07 2664.94,-182.07 2714.06,-159.93 2714.06,-159.93 2719.53,-157.47 2730.47,-157.47 2735.94,-159.93 2735.94,-159.93 2785.06,-182.07 2785.06,-182.07 2790.53,-184.53 2790.53,-189.47 2785.06,-191.93 2785.06,-191.93 2735.94,-214.07 2735.94,-214.07 2730.47,-216.53 2719.53,-216.53 2714.06,-214.07"/>
<text text-anchor="middle" x="2725" y="-190.2" font-family="Courier New" font-size="11.00" fill="#ff6600">Proceed?</text>
<text text-anchor="middle" x="2725" y="-178.2" font-family="Courier New" font-size="11.00" fill="#ff6600">[y/N]</text>
</g>
<!-- dryrun&#45;&gt;proceed -->
<g id="edge15" class="edge">
<title>dryrun&#45;&gt;proceed</title>
<path fill="none" stroke="#39ff14" stroke-width="1.8" d="M2891.06,-313.62C2911.45,-299.89 2932.12,-279.95 2919,-261 2890.97,-220.51 2837.48,-202.45 2793.75,-194.41"/>
<polygon fill="#39ff14" stroke="#39ff14" stroke-width="1.8" points="2794.17,-190.93 2783.73,-192.7 2793,-197.83 2794.17,-190.93"/>
<text text-anchor="middle" x="2967" y="-263.8" font-family="Courier New" font-size="9.00">y → dry run first</text>
</g>
<!-- proceed&#45;&gt;r2 -->
<g id="edge17" class="edge">
<title>proceed&#45;&gt;r2</title>
<path fill="none" stroke="#39ff14" stroke-width="1.8" stroke-dasharray="5,2" d="M2702.91,-209.51C2685.98,-225.07 2661.15,-244.44 2635,-253 2591.28,-267.31 2471.14,-268.96 2428,-253 2406.2,-244.94 2386.41,-227.64 2372.36,-212.78"/>
<polygon fill="#39ff14" stroke="#39ff14" stroke-width="1.8" points="2374.86,-210.34 2365.55,-205.29 2369.68,-215.05 2374.86,-210.34"/>
<text text-anchor="middle" x="2485" y="-263.8" font-family="Courier New" font-size="9.00">y → real backup</text>
</g>
</g>
</svg>
