<?xml version="1.0" encoding="UTF-8" standalone="no"?>
<!DOCTYPE svg PUBLIC "-//W3C//DTD SVG 1.1//EN"
 "http://www.w3.org/Graphics/SVG/1.1/DTD/svg11.dtd">
<!-- Generated by graphviz version 2.43.0 (0)
 -->
<!-- Title: component_architecture Pages: 1 -->
<svg width="1746pt" height="1083pt"
 viewBox="0.00 0.00 1746.20 1083.20" xmlns="http://www.w3.org/2000/svg" xmlns:xlink="http://www.w3.org/1999/xlink">
<g id="graph0" class="graph" transform="scale(1 1) rotate(0) translate(57.6 1025.6)">
<title>component_architecture</title>
<polygon fill="#0d0d0d" stroke="transparent" points="-57.6,57.6 -57.6,-1025.6 1688.6,-1025.6 1688.6,57.6 -57.6,57.6"/>
<text text-anchor="middle" x="815.5" y="-948" font-family="Courier New" font-size="20.00" fill="#cccccc">worlock backup&#45;wizard — Component Architecture</text>
<g id="clust1" class="cluster">
<title>cluster_libs</title>
<path fill="#00050f" stroke="#00bfff" d="M810,-171C810,-171 1209,-171 1209,-171 1215,-171 1221,-177 1221,-183 1221,-183 1221,-556 1221,-556 1221,-562 1215,-568 1209,-568 1209,-568 810,-568 810,-568 804,-568 798,-562 798,-556 798,-556 798,-183 798,-183 798,-177 804,-171 810,-171"/>
<text text-anchor="middle" x="1009.5" y="-554.4" font-family="Courier New" font-size="12.00" fill="#00bfff">lib/ &#160;(sourced at startup)</text>
</g>
<g id="clust2" class="cluster">
<title>cluster_state</title>
<path fill="#0a0a00" stroke="#ffff00" d="M830,-8C830,-8 1480,-8 1480,-8 1486,-8 1492,-14 1492,-20 1492,-20 1492,-113 1492,-113 1492,-119 1486,-125 1480,-125 1480,-125 830,-125 830,-125 824,-125 818,-119 818,-113 818,-113 818,-20 818,-20 818,-14 824,-8 830,-8"/>
<text text-anchor="middle" x="1155" y="-111.4" font-family="Courier New" font-size="12.00" fill="#ffff00">Runtime State</text>
</g>
<g id="clust3" class="cluster">
<title>cluster_system</title>
<path fill="#00080a" stroke="#00f5ff" d="M1373,-644.5C1373,-644.5 1611,-644.5 1611,-644.5 1617,-644.5 1623,-650.5 1623,-656.5 1623,-656.5 1623,-918 1623,-918 1623,-924 1617,-930 1611,-930 1611,-930 1373,-930 1373,-930 1367,-930 1361,-924 1361,-918 1361,-918 1361,-656.5 1361,-656.5 1361,-650.5 1367,-644.5 1373,-644.5"/>
<text text-anchor="middle" x="1492" y="-916.4" font-family="Courier New" font-size="12.00" fill="#00f5ff">System Integration</text>
</g>
<g id="clust4" class="cluster">
<title>cluster_external</title>
<path fill="#0a0500" stroke="#ff6600" d="M20,-203.89C20,-203.89 778,-203.89 778,-203.89 784,-203.89 790,-209.89 790,-215.89 790,-215.89 790,-291.11 790,-291.11 790,-297.11 784,-303.11 778,-303.11 778,-303.11 20,-303.11 20,-303.11 14,-303.11 8,-297.11 8,-291.11 8,-291.11 8,-215.89 8,-215.89 8,-209.89 14,-203.89 20,-203.89"/>
<text text-anchor="middle" x="399" y="-289.51" font-family="Courier New" font-size="12.00" fill="#ff6600">External Binaries</text>
</g>
<!-- wizard -->
<g id="node1" class="node">
<title>wizard</title>
<polygon fill="#0f3460" stroke="#00f5ff" points="1326,-751 1110,-751 1110,-747 1106,-747 1106,-743 1110,-743 1110,-630 1106,-630 1106,-626 1110,-626 1110,-622 1326,-622 1326,-751"/>
<polyline fill="none" stroke="#00f5ff" points="1110,-747 1114,-747 1114,-743 1110,-743 "/>
<polyline fill="none" stroke="#00f5ff" points="1110,-630 1114,-630 1114,-626 1110,-626 "/>
<text text-anchor="middle" x="1218" y="-738.2" font-family="Courier New" font-size="11.00" fill="#00f5ff">backup&#45;wizard.sh</text>
<text text-anchor="middle" x="1218" y="-726.2" font-family="Courier New" font-size="11.00" fill="#00f5ff">/usr/local/bin/backup&#45;wizard</text>
<text text-anchor="middle" x="1218" y="-714.2" font-family="Courier New" font-size="11.00" fill="#00f5ff">(symlink)</text>
<text text-anchor="middle" x="1218" y="-689.2" font-family="Courier New" font-size="11.00" fill="#00f5ff">handle_cli_flags()</text>
<text text-anchor="middle" x="1218" y="-677.2" font-family="Courier New" font-size="11.00" fill="#00f5ff">main_menu()</text>
<text text-anchor="middle" x="1218" y="-665.2" font-family="Courier New" font-size="11.00" fill="#00f5ff">menu_rsync()</text>
<text text-anchor="middle" x="1218" y="-653.2" font-family="Courier New" font-size="11.00" fill="#00f5ff">menu_restic()</text>
<text text-anchor="middle" x="1218" y="-641.2" font-family="Courier New" font-size="11.00" fill="#00f5ff">menu_config()</text>
<text text-anchor="middle" x="1218" y="-629.2" font-family="Courier New" font-size="11.00" fill="#00f5ff">show_status()</text>
</g>
<!-- common -->
<g id="node2" class="node">
<title>common</title>
<path fill="#001a2e" stroke="#00bfff" d="M1201,-307C1201,-307 1019,-307 1019,-307 1013,-307 1007,-301 1007,-295 1007,-295 1007,-191 1007,-191 1007,-185 1013,-179 1019,-179 1019,-179 1201,-179 1201,-179 1207,-179 1213,-185 1213,-191 1213,-191 1213,-295 1213,-295 1213,-301 1207,-307 1201,-307"/>
<text text-anchor="middle" x="1110" y="-294.2" font-family="Courier New" font-size="11.00" fill="#00bfff">common.sh</text>
<text text-anchor="middle" x="1110" y="-282.2" font-family="Courier New" font-size="11.00" fill="#00bfff">─────────────────</text>
<text text-anchor="middle" x="1110" y="-270.2" font-family="Courier New" font-size="11.00" fill="#00bfff">Colors · log_info/warn/error</text>
<text text-anchor="middle" x="1110" y="-258.2" font-family="Courier New" font-size="11.00" fill="#00bfff">write_status_entry()</text>
<text text-anchor="middle" x="1110" y="-246.2" font-family="Courier New" font-size="11.00" fill="#00bfff">require_mount()</text>
<text text-anchor="middle" x="1110" y="-234.2" font-family="Courier New" font-size="11.00" fill="#00bfff">check_free_space()</text>
<text text-anchor="middle" x="1110" y="-222.2" font-family="Courier New" font-size="11.00" fill="#00bfff">ensure_config_dir()</text>
<text text-anchor="middle" x="1110" y="-210.2" font-family="Courier New" font-size="11.00" fill="#00bfff">load_config()</text>
<text text-anchor="middle" x="1110" y="-198.2" font-family="Courier New" font-size="11.00" fill="#00bfff">save_config_value()</text>
<text text-anchor="middle" x="1110" y="-186.2" font-family="Courier New" font-size="11.00" fill="#00bfff">prompt_default() &#160;confirm()</text>
</g>
<!-- wizard&#45;&gt;common -->
<g id="edge1" class="edge">
<title>wizard&#45;&gt;common</title>
<path fill="none" stroke="#00bfff" stroke-width="1.8" d="M1226.66,-621.94C1230.43,-594.25 1234,-568 1234,-568 1234,-568 1234,-399 1234,-399 1234,-399 1199.37,-355.72 1166.72,-314.89"/>
<polygon fill="#00bfff" stroke="#00bfff" stroke-width="1.8" points="1169.42,-312.67 1160.44,-307.04 1163.95,-317.04 1169.42,-312.67"/>
<text text-anchor="middle" x="1250" y="-466.8" font-family="Courier New" font-size="9.00">source</text>
</g>
<!-- rsync_ops -->
<g id="node3" class="node">
<title>rsync_ops</title>
<path fill="#001a00" stroke="#39ff14" d="M978.5,-527C978.5,-527 817.5,-527 817.5,-527 811.5,-527 805.5,-521 805.5,-515 805.5,-515 805.5,-423 805.5,-423 805.5,-417 811.5,-411 817.5,-411 817.5,-411 978.5,-411 978.5,-411 984.5,-411 990.5,-417 990.5,-423 990.5,-423 990.5,-515 990.5,-515 990.5,-521 984.5,-527 978.5,-527"/>
<text text-anchor="middle" x="898" y="-514.2" font-family="Courier New" font-size="11.00" fill="#39ff14">rsync_ops.sh</text>
<text text-anchor="middle" x="898" y="-502.2" font-family="Courier New" font-size="11.00" fill="#39ff14">─────────────────</text>
<text text-anchor="middle" x="898" y="-490.2" font-family="Courier New" font-size="11.00" fill="#39ff14">run_rsync()</text>
<text text-anchor="middle" x="898" y="-478.2" font-family="Courier New" font-size="11.00" fill="#39ff14">backup_aiml_papers()</text>
<text text-anchor="middle" x="898" y="-466.2" font-family="Courier New" font-size="11.00" fill="#39ff14">backup_computer_science()</text>
<text text-anchor="middle" x="898" y="-454.2" font-family="Courier New" font-size="11.00" fill="#39ff14">backup_computers()</text>
<text text-anchor="middle" x="898" y="-442.2" font-family="Courier New" font-size="11.00" fill="#39ff14">backup_all_archives()</text>
<text text-anchor="middle" x="898" y="-430.2" font-family="Courier New" font-size="11.00" fill="#39ff14">backup_pdf_archive()</text>
<text text-anchor="middle" x="898" y="-418.2" font-family="Courier New" font-size="11.00" fill="#39ff14">backup_custom_rsync()</text>
</g>
<!-- wizard&#45;&gt;rsync_ops -->
<g id="edge2" class="edge">
<title>wizard&#45;&gt;rsync_ops</title>
<path fill="none" stroke="#39ff14" stroke-width="1.8" d="M1109.87,-623.83C1060.14,-595.46 1012,-568 1012,-568 1012,-568 993.91,-552.45 972.14,-533.74"/>
<polygon fill="#39ff14" stroke="#39ff14" stroke-width="1.8" points="974.18,-530.87 964.31,-527.01 969.62,-536.18 974.18,-530.87"/>
<text text-anchor="middle" x="1057" y="-578.8" font-family="Courier New" font-size="9.00">source</text>
</g>
<!-- restic_ops -->
<g id="node4" class="node">
<title>restic_ops</title>
<path fill="#0f0015" stroke="#bf00ff" d="M1200.5,-539C1200.5,-539 1045.5,-539 1045.5,-539 1039.5,-539 1033.5,-533 1033.5,-527 1033.5,-527 1033.5,-411 1033.5,-411 1033.5,-405 1039.5,-399 1045.5,-399 1045.5,-399 1200.5,-399 1200.5,-399 1206.5,-399 1212.5,-405 1212.5,-411 1212.5,-411 1212.5,-527 1212.5,-527 1212.5,-533 1206.5,-539 1200.5,-539"/>
<text text-anchor="middle" x="1123" y="-526.2" font-family="Courier New" font-size="11.00" fill="#bf00ff">restic_ops.sh</text>
<text text-anchor="middle" x="1123" y="-514.2" font-family="Courier New" font-size="11.00" fill="#bf00ff">─────────────────</text>
<text text-anchor="middle" x="1123" y="-502.2" font-family="Courier New" font-size="11.00" fill="#bf00ff">ensure_restic_password()</text>
<text text-anchor="middle" x="1123" y="-490.2" font-family="Courier New" font-size="11.00" fill="#bf00ff">set_restic_env()</text>
<text text-anchor="middle" x="1123" y="-478.2" font-family="Courier New" font-size="11.00" fill="#bf00ff">restic_init_repo()</text>
<text text-anchor="middle" x="1123" y="-466.2" font-family="Courier New" font-size="11.00" fill="#bf00ff">run_restic_backup()</text>
<text text-anchor="middle" x="1123" y="-454.2" font-family="Courier New" font-size="11.00" fill="#bf00ff">restic_backup_aiml()</text>
<text text-anchor="middle" x="1123" y="-442.2" font-family="Courier New" font-size="11.00" fill="#bf00ff">restic_backup_custom()</text>
<text text-anchor="middle" x="1123" y="-430.2" font-family="Courier New" font-size="11.00" fill="#bf00ff">restic_list_snapshots()</text>
<text text-anchor="middle" x="1123" y="-418.2" font-family="Courier New" font-size="11.00" fill="#bf00ff">restic_restore()</text>
<text text-anchor="middle" x="1123" y="-406.2" font-family="Courier New" font-size="11.00" fill="#bf00ff">restic_prune()</text>
</g>
<!-- wizard&#45;&gt;restic_ops -->
<g id="edge3" class="edge">
<title>wizard&#45;&gt;restic_ops</title>
<path fill="none" stroke="#bf00ff" stroke-width="1.8" d="M1189.88,-621.72C1179.79,-598.82 1168.28,-572.72 1157.7,-548.7"/>
<polygon fill="#bf00ff" stroke="#bf00ff" stroke-width="1.8" points="1160.77,-547 1153.53,-539.26 1154.36,-549.82 1160.77,-547"/>
<text text-anchor="middle" x="1189" y="-578.8" font-family="Courier New" font-size="9.00">source</text>
</g>
<!-- config_file -->
<g id="node5" class="node">
<title>config_file</title>
<polygon fill="#1a1a00" stroke="#ffff00" points="1477.5,-96 1264.5,-96 1264.5,-16 1483.5,-16 1483.5,-90 1477.5,-96"/>
<polyline fill="none" stroke="#ffff00" points="1477.5,-96 1477.5,-90 "/>
<polyline fill="none" stroke="#ffff00" points="1483.5,-90 1477.5,-90 "/>
<text text-anchor="middle" x="1374" y="-83.2" font-family="Courier New" font-size="11.00" fill="#ffff00">~/.config/backup&#45;wizard/config</text>
<text text-anchor="middle" x="1374" y="-71.2" font-family="Courier New" font-size="11.00" fill="#ffff00">(key=value overrides)</text>
<text text-anchor="middle" x="1374" y="-59.2" font-family="Courier New" font-size="11.00" fill="#ffff00">AIML_SRC · AIML_DST</text>
<text text-anchor="middle" x="1374" y="-47.2" font-family="Courier New" font-size="11.00" fill="#ffff00">CS_SRC · CS_DST</text>
<text text-anchor="middle" x="1374" y="-35.2" font-family="Courier New" font-size="11.00" fill="#ffff00">COMPUTERS_SRC · COMPUTERS_DST</text>
<text text-anchor="middle" x="1374" y="-23.2" font-family="Courier New" font-size="11.00" fill="#ffff00">RESITC_REPO_AIML</text>
</g>
<!-- wizard&#45;&gt;config_file -->
<g id="edge6" class="edge">
<title>wizard&#45;&gt;config_file</title>
<path fill="none" stroke="#ffff00" stroke-width="1.8" stroke-dasharray="5,2" d="M1249.38,-621.94C1263.04,-594.25 1276,-568 1276,-568 1276,-568 1340.01,-234.23 1364.57,-106.19"/>
<polygon fill="#ffff00" stroke="#ffff00" stroke-width="1.8" points="1368.03,-106.73 1366.47,-96.25 1361.15,-105.41 1368.03,-106.73"/>
<text text-anchor="middle" x="1342" y="-350.8" font-family="Courier New" font-size="9.00">load/save</text>
</g>
<!-- common&#45;&gt;config_file -->
<g id="edge7" class="edge">
<title>common&#45;&gt;config_file</title>
<path fill="none" stroke="#ffff00" stroke-width="1.8" stroke-dasharray="5,2" d="M1200.12,-178.85C1236.19,-153.57 1276.93,-125.02 1309.9,-101.92"/>
<polygon fill="#ffff00" stroke="#ffff00" stroke-width="1.8" points="1311.92,-104.77 1318.11,-96.17 1307.91,-99.04 1311.92,-104.77"/>
</g>
<!-- pass_file -->
<g id="node6" class="node">
<title>pass_file</title>
<polygon fill="#1a0010" stroke="#ff0066" points="999.5,-78 826.5,-78 826.5,-34 1005.5,-34 1005.5,-72 999.5,-78"/>
<polyline fill="none" stroke="#ff0066" points="999.5,-78 999.5,-72 "/>
<polyline fill="none" stroke="#ff0066" points="1005.5,-72 999.5,-72 "/>
<text text-anchor="middle" x="916" y="-65.2" font-family="Courier New" font-size="11.00" fill="#ff0066">~/.config/backup&#45;wizard/</text>
<text text-anchor="middle" x="916" y="-53.2" font-family="Courier New" font-size="11.00" fill="#ff0066">restic_password</text>
<text text-anchor="middle" x="916" y="-41.2" font-family="Courier New" font-size="11.00" fill="#ff0066">(chmod 600)</text>
</g>
<!-- common&#45;&gt;pass_file -->
<g id="edge8" class="edge">
<title>common&#45;&gt;pass_file</title>
<path fill="none" stroke="#ff0066" stroke-width="1.8" stroke-dasharray="5,2" d="M1043.78,-178.85C1010.41,-147.03 971.62,-110.04 945.61,-85.24"/>
<polygon fill="#ff0066" stroke="#ff0066" stroke-width="1.8" points="947.95,-82.63 938.3,-78.27 943.12,-87.7 947.95,-82.63"/>
<text text-anchor="middle" x="1014.5" y="-135.8" font-family="Courier New" font-size="9.00">reads</text>
</g>
<!-- status_log -->
<g id="node7" class="node">
<title>status_log</title>
<polygon fill="#1a1a00" stroke="#ffff00" points="1215,-84 1049,-84 1049,-28 1221,-28 1221,-78 1215,-84"/>
<polyline fill="none" stroke="#ffff00" points="1215,-84 1215,-78 "/>
<polyline fill="none" stroke="#ffff00" points="1221,-78 1215,-78 "/>
<text text-anchor="middle" x="1135" y="-71.2" font-family="Courier New" font-size="11.00" fill="#ffff00">/var/log/backup&#45;wizard/</text>
<text text-anchor="middle" x="1135" y="-59.2" font-family="Courier New" font-size="11.00" fill="#ffff00">last_run.log</text>
<text text-anchor="middle" x="1135" y="-47.2" font-family="Courier New" font-size="11.00" fill="#ffff00">(one line per job tag</text>
<text text-anchor="middle" x="1135" y="-35.2" font-family="Courier New" font-size="11.00" fill="#ffff00">updated in&#45;place)</text>
</g>
<!-- common&#45;&gt;status_log -->
<g id="edge10" class="edge">
<title>common&#45;&gt;status_log</title>
<path fill="none" stroke="#ffff00" stroke-width="1.8" d="M1118.53,-178.85C1122.33,-150.77 1126.67,-118.66 1129.94,-94.45"/>
<polygon fill="#ffff00" stroke="#ffff00" stroke-width="1.8" points="1133.44,-94.64 1131.32,-84.26 1126.51,-93.7 1133.44,-94.64"/>
<text text-anchor="middle" x="1176" y="-135.8" font-family="Courier New" font-size="9.00">write_status_entry()</text>
</g>
<!-- rsync_ops&#45;&gt;common -->
<g id="edge4" class="edge">
<title>rsync_ops&#45;&gt;common</title>
<path fill="none" stroke="#00bfff" stroke-width="1.8" stroke-dasharray="5,2" d="M952.05,-410.9C979.76,-381.62 1013.76,-345.69 1043.11,-314.67"/>
<polygon fill="#00bfff" stroke="#00bfff" stroke-width="1.8" points="1045.75,-316.98 1050.08,-307.31 1040.66,-312.17 1045.75,-316.98"/>
<text text-anchor="middle" x="1021" y="-350.8" font-family="Courier New" font-size="9.00">uses</text>
</g>
<!-- rsync_bin -->
<g id="node10" class="node">
<title>rsync_bin</title>
<ellipse fill="#1a0800" stroke="#ff6600" cx="94" cy="-243" rx="78.48" ry="22.76"/>
<text text-anchor="middle" x="94" y="-246.2" font-family="Courier New" font-size="11.00" fill="#ff6600">/usr/bin/rsync</text>
<text text-anchor="middle" x="94" y="-234.2" font-family="Courier New" font-size="11.00" fill="#ff6600">(installed)</text>
</g>
<!-- rsync_ops&#45;&gt;rsync_bin -->
<g id="edge12" class="edge">
<title>rsync_ops&#45;&gt;rsync_bin</title>
<path fill="none" stroke="#ff6600" stroke-width="1.8" d="M805.24,-446.79C614.07,-403.07 194,-307 194,-307 194,-307 161.72,-286.66 133.84,-269.1"/>
<polygon fill="#ff6600" stroke="#ff6600" stroke-width="1.8" points="135.69,-266.13 125.37,-263.76 131.96,-272.05 135.69,-266.13"/>
<text text-anchor="middle" x="432" y="-350.8" font-family="Courier New" font-size="9.00">exec</text>
</g>
<!-- pdf_script -->
<g id="node12" class="node">
<title>pdf_script</title>
<ellipse fill="#1a0800" stroke="#ff6600" cx="365" cy="-243" rx="149.81" ry="31.23"/>
<text text-anchor="middle" x="365" y="-252.2" font-family="Courier New" font-size="11.00" fill="#ff6600">pdf&#45;backup.sh</text>
<text text-anchor="middle" x="365" y="-240.2" font-family="Courier New" font-size="11.00" fill="#ff6600">(existing toolkit)</text>
<text text-anchor="middle" x="365" y="-228.2" font-family="Courier New" font-size="11.00" fill="#ff6600">2026&#45;03&#45;27_220258_pdf&#45;backup/</text>
</g>
<!-- rsync_ops&#45;&gt;pdf_script -->
<g id="edge14" class="edge">
<title>rsync_ops&#45;&gt;pdf_script</title>
<path fill="none" stroke="#ff6600" stroke-width="1.8" d="M805.22,-429.94C731.95,-399.89 642,-363 642,-363 642,-363 519.92,-310.55 437.85,-275.3"/>
<polygon fill="#ff6600" stroke="#ff6600" stroke-width="1.8" points="439.12,-272.03 428.55,-271.3 436.36,-278.46 439.12,-272.03"/>
<text text-anchor="middle" x="705.5" y="-355.8" font-family="Courier New" font-size="9.00">sudo exec</text>
<text text-anchor="middle" x="705.5" y="-345.8" font-family="Courier New" font-size="9.00">(fallback: direct rsync)</text>
</g>
<!-- restic_ops&#45;&gt;common -->
<g id="edge5" class="edge">
<title>restic_ops&#45;&gt;common</title>
<path fill="none" stroke="#00bfff" stroke-width="1.8" stroke-dasharray="5,2" d="M1118.99,-398.96C1117.49,-373.09 1115.78,-343.61 1114.26,-317.36"/>
<polygon fill="#00bfff" stroke="#00bfff" stroke-width="1.8" points="1117.74,-316.87 1113.66,-307.09 1110.75,-317.28 1117.74,-316.87"/>
<text text-anchor="middle" x="1127" y="-350.8" font-family="Courier New" font-size="9.00">uses</text>
</g>
<!-- restic_ops&#45;&gt;pass_file -->
<g id="edge9" class="edge">
<title>restic_ops&#45;&gt;pass_file</title>
<path fill="none" stroke="#ff0066" stroke-width="1.8" stroke-dasharray="5,2" d="M1033.42,-398.84C1007.96,-379.18 987,-363 987,-363 987,-363 917,-307 917,-307 917,-307 916.39,-155.42 916.13,-88.32"/>
<polygon fill="#ff0066" stroke="#ff0066" stroke-width="1.8" points="919.63,-88.3 916.09,-78.31 912.63,-88.33 919.63,-88.3"/>
<text text-anchor="middle" x="951.5" y="-240.8" font-family="Courier New" font-size="9.00">creates/reads</text>
</g>
<!-- restic_bin -->
<g id="node11" class="node">
<title>restic_bin</title>
<ellipse fill="#1a0800" stroke="#ff6600" cx="670" cy="-243" rx="111.95" ry="31.23"/>
<text text-anchor="middle" x="670" y="-252.2" font-family="Courier New" font-size="11.00" fill="#ff6600">/usr/local/bin/restic</text>
<text text-anchor="middle" x="670" y="-240.2" font-family="Courier New" font-size="11.00" fill="#ff6600">v0.14.0 &#160;(installed)</text>
<text text-anchor="middle" x="670" y="-228.2" font-family="Courier New" font-size="11.00" fill="#ff6600">zstd compression</text>
</g>
<!-- restic_ops&#45;&gt;restic_bin -->
<g id="edge13" class="edge">
<title>restic_ops&#45;&gt;restic_bin</title>
<path fill="none" stroke="#ff6600" stroke-width="1.8" d="M1033.4,-412.3C1020.78,-404.46 1012,-399 1012,-399 1012,-399 841,-363 841,-363 841,-363 769.3,-313.1 718.75,-277.93"/>
<polygon fill="#ff6600" stroke="#ff6600" stroke-width="1.8" points="720.73,-275.04 710.52,-272.2 716.73,-280.79 720.73,-275.04"/>
<text text-anchor="middle" x="852" y="-350.8" font-family="Courier New" font-size="9.00">exec</text>
</g>
<!-- restic_ops&#45;&gt;restic_bin -->
<g id="edge15" class="edge">
<title>restic_ops&#45;&gt;restic_bin</title>
<path fill="none" stroke="#ff6600" stroke-width="1.8" d="M1033.4,-412.3C1020.78,-404.46 1012,-399 1012,-399 1012,-399 802,-363 802,-363 802,-363 748.71,-314.96 709.85,-279.93"/>
<polygon fill="#ff6600" stroke="#ff6600" stroke-width="1.8" points="712.06,-277.21 702.29,-273.11 707.37,-282.41 712.06,-277.21"/>
</g>
<!-- motd_script -->
<g id="node8" class="node">
<title>motd_script</title>
<path fill="#001a1a" stroke="#00f5ff" d="M1603,-720.5C1603,-720.5 1381,-720.5 1381,-720.5 1375,-720.5 1369,-714.5 1369,-708.5 1369,-708.5 1369,-664.5 1369,-664.5 1369,-658.5 1375,-652.5 1381,-652.5 1381,-652.5 1603,-652.5 1603,-652.5 1609,-652.5 1615,-658.5 1615,-664.5 1615,-664.5 1615,-708.5 1615,-708.5 1615,-714.5 1609,-720.5 1603,-720.5"/>
<text text-anchor="middle" x="1492" y="-707.7" font-family="Courier New" font-size="11.00" fill="#00f5ff">/etc/update&#45;motd.d/</text>
<text text-anchor="middle" x="1492" y="-695.7" font-family="Courier New" font-size="11.00" fill="#00f5ff">94&#45;backup&#45;status</text>
<text text-anchor="middle" x="1492" y="-683.7" font-family="Courier New" font-size="11.00" fill="#00f5ff">(runs at login via run&#45;parts)</text>
<text text-anchor="middle" x="1492" y="-671.7" font-family="Courier New" font-size="11.00" fill="#00f5ff">Reads last_run.log only</text>
<text text-anchor="middle" x="1492" y="-659.7" font-family="Courier New" font-size="11.00" fill="#00f5ff">Shows: status · mounts · quick&#45;ref</text>
</g>
<!-- status_log&#45;&gt;motd_script -->
<g id="edge11" class="edge">
<title>status_log&#45;&gt;motd_script</title>
<path fill="none" stroke="#00f5ff" stroke-width="1.8" stroke-dasharray="5,2" d="M1171.96,-84.01C1201.85,-105.85 1239,-133 1239,-133 1239,-133 1376,-343 1376,-343 1376,-343 1446.43,-550.96 1477.53,-642.79"/>
<polygon fill="#00f5ff" stroke="#00f5ff" stroke-width="1.8" points="1474.25,-644 1480.77,-652.35 1480.88,-641.75 1474.25,-644"/>
<text text-anchor="middle" x="1416.5" y="-350.8" font-family="Courier New" font-size="9.00">read at login</text>
</g>
<!-- installer -->
<g id="node9" class="node">
<title>installer</title>
<path fill="#0a0a1a" stroke="#888888" d="M1577,-901C1577,-901 1389,-901 1389,-901 1383,-901 1377,-895 1377,-889 1377,-889 1377,-845 1377,-845 1377,-839 1383,-833 1389,-833 1389,-833 1577,-833 1577,-833 1583,-833 1589,-839 1589,-845 1589,-845 1589,-889 1589,-889 1589,-895 1583,-901 1577,-901"/>
<text text-anchor="middle" x="1483" y="-888.2" font-family="Courier New" font-size="11.00" fill="#888888">install.sh</text>
<text text-anchor="middle" x="1483" y="-876.2" font-family="Courier New" font-size="11.00" fill="#888888">symlink → /usr/local/bin/</text>
<text text-anchor="middle" x="1483" y="-864.2" font-family="Courier New" font-size="11.00" fill="#888888">copy → /etc/update&#45;motd.d/</text>
<text text-anchor="middle" x="1483" y="-852.2" font-family="Courier New" font-size="11.00" fill="#888888">mkdir /var/log/backup&#45;wizard/</text>
<text text-anchor="middle" x="1483" y="-840.2" font-family="Courier New" font-size="11.00" fill="#888888">chmod 1777 (sticky)</text>
</g>
<!-- installer&#45;&gt;wizard -->
<g id="edge17" class="edge">
<title>installer&#45;&gt;wizard</title>
<path fill="none" stroke="#888888" stroke-width="1.8" stroke-dasharray="1,5" d="M1433.78,-832.84C1402.12,-811.52 1359.79,-783.01 1321.02,-756.89"/>
<polygon fill="#888888" stroke="#888888" stroke-width="1.8" points="1322.54,-753.69 1312.29,-751.01 1318.63,-759.5 1322.54,-753.69"/>
<text text-anchor="middle" x="1395.5" y="-789.8" font-family="Courier New" font-size="9.00">symlinks</text>
</g>
<!-- installer&#45;&gt;motd_script -->
<g id="edge16" class="edge">
<title>installer&#45;&gt;motd_script</title>
<path fill="none" stroke="#888888" stroke-width="1.8" stroke-dasharray="1,5" d="M1484.67,-832.84C1486.12,-804.13 1488.22,-762.39 1489.81,-731"/>
<polygon fill="#888888" stroke="#888888" stroke-width="1.8" points="1493.31,-730.94 1490.32,-720.78 1486.32,-730.59 1493.31,-730.94"/>
<text text-anchor="middle" x="1504.5" y="-789.8" font-family="Courier New" font-size="9.00">deploys</text>
</g>
</g>
</svg>
